<?xml version="1.0" standalone="no"?>
<!DOCTYPE svg PUBLIC "-//W3C//DTD SVG 1.1//EN" "http://www.w3.org/Graphics/SVG/1.1/DTD/svg11.dtd" >
<svg xmlns="http://www.w3.org/2000/svg" xmlns:xlink="http://www.w3.org/1999/xlink" version="1.1">
<metadata>
Created by FontForge 20170731 at Thu Nov 23 11:45:25 2017
 By ,,,
Copyright (c) 2017 by Ericsson. All rights reserved.
</metadata>
<defs>
<font id="HildaMono02-Bold" horiz-adv-x="580" >
  <font-face 
    font-family="Hilda Mono 02"
    font-weight="700"
    font-stretch="normal"
    units-per-em="1000"
    panose-1="0 0 8 0 0 0 0 0 0 0"
    ascent="750"
    descent="-250"
    x-height="507"
    cap-height="700"
    bbox="-469 -241 704 947"
    underline-thickness="70"
    underline-position="-270"
    unicode-range="U+0020-25CA"
  />
<missing-glyph 
d="M488 760v-860h-396v860h396zM144 -50h292v760h-292v-760z" />
    <glyph glyph-name=".notdef" 
d="M488 760v-860h-396v860h396zM144 -50h292v760h-292v-760z" />
    <glyph glyph-name=".null" horiz-adv-x="0" 
 />
    <glyph glyph-name="nonmarkingreturn" horiz-adv-x="333" 
 />
    <glyph glyph-name="space" unicode=" " 
 />
    <glyph glyph-name="exclam" unicode="!" 
d="M233 215v485h114v-485h-114zM310 -10q-35 0 -59.5 24.5t-24.5 58.5q0 35 24.5 59t59.5 24t59.5 -24t24.5 -59q0 -34 -24.5 -58.5t-59.5 -24.5z" />
    <glyph glyph-name="quotedbl" unicode="&#x22;" 
d="M161 465v235h110v-235h-110zM349 465v235h110v-235h-110z" />
    <glyph glyph-name="numbersign" unicode="#" 
d="M544 410h-102l-24 -120h91v-79h-106l-41 -211h-83l41 211h-113l-41 -211h-83l41 211h-88v79h103l24 120h-91v78h106l41 212h83l-41 -212h113l41 212h83l-41 -212h87v-78zM335 290l24 120h-113l-24 -120h113z" />
    <glyph glyph-name="dollar" unicode="$" 
d="M514 193q0 -85 -51.5 -138.5t-140.5 -64.5v-100h-67v97q-58 3 -110.5 20t-81.5 40v108q81 -61 192 -67v224l-8 3q-45 16 -73.5 31t-54.5 38t-38.5 55t-12.5 76q0 80 51 131.5t136 63.5v80h67v-77q95 -5 151 -41v-105q-64 39 -151 44v-206l15 -6q85 -32 131 -77.5
t46 -128.5zM176 520q0 -32 18.5 -51.5t60.5 -37.5v177q-79 -16 -79 -88zM322 93q83 17 83 96q0 37 -21 59t-62 39v-194z" />
    <glyph glyph-name="percent" unicode="%" 
d="M140 707q110 0 110 -143v-22q0 -143 -110 -143t-110 143v22q0 143 110 143zM96 0l366 700h62l-366 -700h-62zM187 563q0 87 -47 87t-47 -87v-20q0 -87 47 -87t47 87v20zM440 301q110 0 110 -143v-22q0 -143 -110 -143t-110 143v22q0 143 110 143zM487 157q0 87 -47 87
t-47 -87v-20q0 -87 47 -87t47 87v20z" />
    <glyph glyph-name="ampersand" unicode="&#x26;" 
d="M572 0h-143l-38 50q-69 -63 -167 -63q-92 0 -142 51.5t-50 135.5q0 68 31 114t86 83q-57 89 -57 174q0 71 44 118.5t122 47.5q71 0 117 -43.5t46 -119.5q0 -63 -32.5 -106t-89.5 -84l87 -114q10 32 18 71h113q-18 -97 -55 -171zM254 619q-53 0 -53 -74q0 -51 44 -115
q36 24 52 50t16 64q0 75 -59 75zM232 81q56 0 97 51l-122 160q-60 -49 -60 -113q0 -46 23 -72t62 -26z" />
    <glyph glyph-name="quotesingle" unicode="'" 
d="M235 465v235h110v-235h-110z" />
    <glyph glyph-name="parenleft" unicode="(" 
d="M306 -122q-75 90 -114.5 200.5t-39.5 225.5t39.5 225.5t114.5 200.5h123q-80 -91 -123.5 -201t-43.5 -225t43.5 -225t123.5 -201h-123z" />
    <glyph glyph-name="parenright" unicode=")" 
d="M255 -122h-123q80 91 123.5 201t43.5 225t-43.5 225t-123.5 201h123q75 -90 114.5 -200.5t39.5 -225.5t-39.5 -225.5t-114.5 -200.5z" />
    <glyph glyph-name="asterisk" unicode="*" 
d="M485 595l-137 -69l137 -69l-37 -64l-128 84l8 -154h-76l8 153l-128 -83l-38 64l139 69l-139 69l38 66l128 -84l-8 153h76l-8 -154l128 85z" />
    <glyph glyph-name="plus" unicode="+" 
d="M519 392v-90h-181v-164h-96v164h-141v90h141v164h96v-164h181z" />
    <glyph glyph-name="comma" unicode="," 
d="M188 -135l66 244h137l-81 -244h-122z" />
    <glyph glyph-name="hyphen" unicode="-" 
d="M143 257v107h294v-107h-294z" />
    <glyph glyph-name="period" unicode="." 
d="M290 -10q-35 0 -59.5 24.5t-24.5 58.5q0 35 24.5 59t59.5 24t59.5 -24t24.5 -59q0 -34 -24.5 -58.5t-59.5 -24.5z" />
    <glyph glyph-name="slash" unicode="/" 
d="M83 -92l305 842h110l-305 -842h-110z" />
    <glyph glyph-name="zero" unicode="0" 
d="M290 713q123 0 180.5 -92.5t57.5 -248.5v-44q0 -156 -57.5 -248.5t-180.5 -92.5t-180.5 92.5t-57.5 248.5v44q0 156 57.5 248.5t180.5 92.5zM290 612q-128 0 -128 -241v-14l253 84q-15 171 -125 171zM290 88q128 0 128 241v13l-253 -84q17 -170 125 -170z" />
    <glyph glyph-name="one" unicode="1" 
d="M375 92h163v-92h-443v92h170v480l-162 -48v103l220 74h52v-609z" />
    <glyph glyph-name="two" unicode="2" 
d="M184 103h327v-103h-452v44q0 74 36 132t122 127l56 45q68 55 96.5 91.5t28.5 76.5q0 43 -32.5 67t-91.5 24q-98 0 -186 -69v112q70 63 194 63q110 0 168 -54.5t58 -142.5q0 -61 -35.5 -113.5t-127.5 -128.5l-49 -40q-52 -42 -77 -71.5t-35 -59.5z" />
    <glyph glyph-name="three" unicode="3" 
d="M315 424q89 -5 145 -59t56 -147q0 -102 -69.5 -166.5t-184.5 -64.5q-118 0 -197 49v112q84 -55 196 -55q69 0 107 35.5t38 87.5q0 50 -34 80t-97 30q-48 0 -74 -13l-49 70l201 214h-277v103h406v-99z" />
    <glyph glyph-name="four" unicode="4" 
d="M455 243h97v-103h-97v-140h-110v140h-309v98l257 462h162v-457zM151 243h194v348z" />
    <glyph glyph-name="five" unicode="5" 
d="M295 436q100 0 163.5 -57t63.5 -158q0 -104 -70 -169t-189 -65q-113 0 -192 49v112q82 -55 191 -55q75 0 112.5 35.5t37.5 90.5q0 51 -33 81.5t-98 30.5q-61 0 -103 -25l-89 31l44 363h360v-103h-268l-21 -175q44 14 91 14z" />
    <glyph glyph-name="six" unicode="6" 
d="M314 458q107 0 163 -59t56 -167q0 -103 -60.5 -174t-172.5 -71q-115 0 -178.5 68.5t-63.5 182.5v30q0 69 23.5 137.5t61.5 124t77 97.5t79 73h159q-183 -141 -246 -266q48 24 102 24zM300 90q61 0 92 36.5t31 99.5q0 130 -126 130q-76 0 -126 -51q-3 -21 -3 -42v-20
q0 -71 33.5 -112t98.5 -41z" />
    <glyph glyph-name="seven" unicode="7" 
d="M65 700h459v-101q-94 -123 -159.5 -281t-86.5 -318h-125q14 137 82.5 301.5t161.5 295.5h-332v103z" />
    <glyph glyph-name="eight" unicode="8" 
d="M435 371q100 -56 100 -173q0 -93 -64 -152t-181 -59t-181 59t-64 152q0 117 100 173q-75 54 -75 146q0 84 59.5 140t160.5 56t160.5 -56t59.5 -140q0 -92 -75 -146zM290 615q-53 0 -81.5 -28t-28.5 -71t28.5 -71.5t81.5 -28.5t81.5 28.5t28.5 71.5t-28 71t-82 28zM290 85
q65 0 100 32t35 84q0 54 -34 86t-101 32q-65 0 -100 -33t-35 -85t35 -84t100 -32z" />
    <glyph glyph-name="nine" unicode="9" 
d="M283 713q112 0 175.5 -69t63.5 -182v-30q0 -69 -23.5 -137.5t-61.5 -124t-77 -97.5t-79 -73h-155q180 138 243 266q-46 -24 -106 -24q-97 0 -156.5 60t-59.5 164q0 105 60 176t176 71zM280 344q81 0 129 51q3 21 3 42v20q0 71 -33.5 112t-98.5 41q-61 0 -92 -36.5
t-31 -100.5q0 -129 123 -129z" />
    <glyph glyph-name="colon" unicode=":" 
d="M310 354q-35 0 -59.5 24.5t-24.5 58.5q0 35 24.5 59t59.5 24t59.5 -24t24.5 -59q0 -34 -24.5 -58.5t-59.5 -24.5zM310 -10q-35 0 -59.5 24.5t-24.5 58.5q0 35 24.5 59t59.5 24t59.5 -24t24.5 -59q0 -34 -24.5 -58.5t-59.5 -24.5z" />
    <glyph glyph-name="semicolon" unicode=";" 
d="M325 353q-35 0 -59.5 24.5t-24.5 58.5q0 35 24.5 59t59.5 24t59.5 -24t24.5 -59q0 -34 -24.5 -58.5t-59.5 -24.5zM189 -135l66 244h137l-81 -244h-122z" />
    <glyph glyph-name="less" unicode="&#x3c;" 
d="M479 537v-99l-298 -96l298 -95v-99l-418 150v89z" />
    <glyph glyph-name="equal" unicode="=" 
d="M101 391v90h418v-90h-418zM101 213v90h418v-90h-418z" />
    <glyph glyph-name="greater" unicode="&#x3e;" 
d="M81 537l418 -150v-89l-418 -150v99l298 95l-298 96v99z" />
    <glyph glyph-name="question" unicode="?" 
d="M182 215q0 54 17.5 91t61.5 83l32 33q34 36 50 60.5t16 51.5q0 37 -29.5 54t-76.5 17q-89 0 -152 -42v110q23 18 67.5 29t86.5 11q100 0 162.5 -41.5t62.5 -125.5q0 -52 -23.5 -91.5t-80.5 -98.5l-44 -46q-33 -33 -37 -95h-113zM256 -10q-35 0 -59.5 24.5t-24.5 58.5
q0 35 24.5 59t59.5 24t59.5 -24t24.5 -59q0 -34 -24.5 -58.5t-59.5 -24.5z" />
    <glyph glyph-name="at" unicode="@" 
d="M423 442l-23 -212q-15 -147 25 -147q24 0 37.5 50t13.5 136q0 157 -45 246t-125 89q-89 0 -145.5 -106.5t-56.5 -275.5q0 -161 52.5 -255t142.5 -94q73 0 127 57v-74q-38 -54 -128 -54q-118 0 -189.5 115t-71.5 304q0 198 76 326t192 128q107 0 172.5 -110t65.5 -284
q0 -125 -33 -196.5t-91 -71.5q-56 0 -81 68q-23 -68 -77 -68q-45 0 -71.5 51t-26.5 139q0 107 35.5 180.5t88.5 73.5q37 0 55 -41l4 26h77zM276 96q37 0 52 231q-2 21 -11 36.5t-21 15.5q-21 0 -35 -53t-14 -124q0 -106 29 -106z" />
    <glyph glyph-name="A" unicode="A" 
d="M437 0l-43 177h-211l-43 -177h-116l180 700h172l180 -700h-119zM210 287h157l-78 324z" />
    <glyph glyph-name="B" unicode="B" 
d="M431 369q95 -53 95 -166q0 -92 -60 -147.5t-154 -55.5h-236v700h228q90 0 147 -52t57 -139q0 -92 -77 -140zM302 590h-112v-175h112q45 0 68.5 24.5t23.5 63.5t-23.5 63t-68.5 24zM310 110q49 0 76 27.5t27 70.5t-27 70t-76 27h-120v-195h120z" />
    <glyph glyph-name="C" unicode="C" 
d="M189 310q0 -98 42.5 -155.5t131.5 -57.5q75 0 136 42v-112q-49 -40 -137 -40q-142 0 -215.5 90t-73.5 230v86q0 141 73.5 230.5t216.5 89.5q87 0 136 -40v-112q-61 42 -136 42q-89 0 -131.5 -57.5t-42.5 -155.5v-80z" />
    <glyph glyph-name="D" unicode="D" 
d="M280 700q122 0 185.5 -86t63.5 -226v-76q0 -140 -63.5 -226t-185.5 -86h-204v700h204zM413 313v74q0 93 -32.5 148t-100.5 55h-90v-482h90q68 0 100.5 56t32.5 149z" />
    <glyph glyph-name="E" unicode="E" 
d="M194 110h304v-110h-418v700h416v-110h-302v-173h270v-110h-270v-197z" />
    <glyph glyph-name="F" unicode="F" 
d="M80 0v700h417v-110h-303v-183h270v-110h-270v-297h-114z" />
    <glyph glyph-name="G" unicode="G" 
d="M301 390h220v-328q-39 -37 -94 -56t-107 -19q-131 0 -200 87t-69 233v86q0 145 71.5 232.5t204.5 87.5q85 0 159 -45v-112q-33 16 -51.5 24t-48 15.5t-58.5 7.5q-80 0 -120.5 -55t-40.5 -158v-80q0 -213 150 -213q52 0 91 19v164h-107v110z" />
    <glyph glyph-name="H" unicode="H" 
d="M390 700h114v-700h-114v307h-200v-307h-114v700h114v-283h200v283z" />
    <glyph glyph-name="I" unicode="I" 
d="M488 590h-141v-480h141v-110h-396v110h141v480h-141v110h396v-110z" />
    <glyph glyph-name="J" unicode="J" 
d="M474 700v-503q0 -205 -234 -205q-88 0 -151 25v113q65 -28 144 -28q70 0 98.5 29t28.5 92v367h-231v110h345z" />
    <glyph glyph-name="K" unicode="K" 
d="M559 0h-136l-226 331v-331h-115v700h115v-313l209 313h132l-232 -336z" />
    <glyph glyph-name="L" unicode="L" 
d="M80 0v700h114v-590h317v-110h-431z" />
    <glyph glyph-name="M" unicode="M" 
d="M395 700h131v-700h-101v520l-99 -376h-74l-100 377v-521h-98v700h133l104 -398z" />
    <glyph glyph-name="N" unicode="N" 
d="M397 700h107v-700h-115l-206 495v-495h-107v700h115l206 -495v495z" />
    <glyph glyph-name="O" unicode="O" 
d="M290 713q114 0 176.5 -85t62.5 -240v-76q0 -155 -62.5 -240t-176.5 -85t-176.5 85t-62.5 240v76q0 155 62.5 240t176.5 85zM413 387q0 216 -123 216t-123 -216v-74q0 -216 123 -216t123 216v74z" />
    <glyph glyph-name="P" unicode="P" 
d="M307 700q102 0 166.5 -60t64.5 -159t-64.5 -159t-166.5 -60h-117v-262h-114v700h231zM305 372q58 0 89 30t31 79t-31 79t-89 30h-115v-218h115z" />
    <glyph glyph-name="Q" unicode="Q" 
d="M584 -92h-136l-77 92q-35 -13 -81 -13q-114 0 -176.5 85t-62.5 240v76q0 155 62.5 240t176.5 85t176.5 -85t62.5 -240v-76q0 -168 -72 -252zM167 313q0 -216 123 -216t123 216v74q0 216 -123 216t-123 -216v-74z" />
    <glyph glyph-name="R" unicode="R" 
d="M417 0l-159 277h-68v-277h-114v700h216q101 0 161.5 -57.5t60.5 -154.5q0 -74 -36 -125.5t-100 -72.5l169 -290h-130zM190 590v-203h100q57 0 83.5 27.5t26.5 73.5t-26.5 74t-83.5 28h-100z" />
    <glyph glyph-name="S" unicode="S" 
d="M278 -13q-63 0 -120 17.5t-89 42.5v114q93 -66 206 -66q60 0 91 25t31 69q0 41 -23 64.5t-75 42.5l-50 19q-90 34 -132.5 76t-42.5 124q0 93 63.5 145.5t166.5 52.5q104 0 166 -40v-112q-78 44 -168 44q-115 0 -115 -86q0 -38 24 -60t79 -42l48 -18q83 -31 128 -76.5
t45 -129.5q0 -96 -63.5 -151t-169.5 -55z" />
    <glyph glyph-name="T" unicode="T" 
d="M347 -1h-114v591h-183v110h480v-110h-183v-591z" />
    <glyph glyph-name="U" unicode="U" 
d="M511 700v-493q0 -99 -55.5 -159.5t-165.5 -60.5t-165.5 60.5t-55.5 159.5v493h115v-492q0 -52 25.5 -82.5t80.5 -30.5t80.5 30.5t25.5 82.5v492h115z" />
    <glyph glyph-name="V" unicode="V" 
d="M434 700h117l-188 -700h-146l-188 700h120l143 -572z" />
    <glyph glyph-name="W" unicode="W" 
d="M453 700h102l-57 -700h-136l-71 492l-71 -492h-137l-58 700h105l39 -617l70 478h104l71 -474z" />
    <glyph glyph-name="X" unicode="X" 
d="M549 0h-128l-131 267l-131 -267h-128l186 358l-178 342h128l123 -250l123 250h128l-177 -342z" />
    <glyph glyph-name="Y" unicode="Y" 
d="M553 700l-206 -394v-306h-114v306l-206 394h125l139 -278l140 278h122z" />
    <glyph glyph-name="Z" unicode="Z" 
d="M62 0v105l323 485h-298v110h430v-105l-322 -485h323v-110h-456z" />
    <glyph glyph-name="bracketleft" unicode="[" 
d="M172 -140v870h236v-87h-127v-696h127v-87h-236z" />
    <glyph glyph-name="backslash" unicode="\" 
d="M477 -92h-110l-305 842h110z" />
    <glyph glyph-name="bracketright" unicode="]" 
d="M388 -140h-236v87h127v696h-127v87h236v-870z" />
    <glyph glyph-name="asciicircum" unicode="^" 
d="M540 290h-98l-152 312l-152 -312h-98l200 410h100z" />
    <glyph glyph-name="underscore" unicode="_" 
d="M42 -171v82h496v-82h-496z" />
    <glyph glyph-name="grave" unicode="`" 
d="M413 598h-108l-99 132h122z" />
    <glyph glyph-name="a" unicode="a" 
d="M401 507h100v-507h-100v53q-49 -62 -136 -62q-100 0 -154 70t-54 177v31q0 107 54 177t154 70q87 0 136 -62v53zM280 98q73 0 111 62v187q-38 62 -111 62q-57 0 -84 -39t-27 -104v-25q0 -65 27 -104t84 -39z" />
    <glyph glyph-name="b" unicode="b" 
d="M315 516q100 0 154 -70t54 -177v-31q0 -107 -54 -177t-154 -70q-87 0 -136 62v-53h-100v730h110v-265q48 51 126 51zM411 241v25q0 65 -27 104t-84 39q-73 0 -111 -62v-187q38 -62 111 -62q57 0 84 39t27 104z" />
    <glyph glyph-name="c" unicode="c" 
d="M190 241q0 -68 38.5 -107.5t118.5 -39.5q72 0 132 31v-107q-51 -30 -139 -30q-125 0 -193.5 71t-68.5 179v31q0 108 68.5 179t193.5 71q88 0 139 -30v-107q-60 31 -132 31q-80 0 -118.5 -39.5t-38.5 -107.5v-25z" />
    <glyph glyph-name="d" unicode="d" 
d="M391 730h110v-730h-100v53q-49 -62 -136 -62q-100 0 -154 70t-54 177v31q0 107 54 177t154 70q78 0 126 -51v265zM280 98q73 0 111 62v187q-38 62 -111 62q-57 0 -84 -39t-27 -104v-25q0 -65 27 -104t84 -39z" />
    <glyph glyph-name="e" unicode="e" 
d="M510 289v-71h-335q12 -124 160 -124q79 0 144 38v-106q-52 -38 -149 -38q-124 0 -194.5 66.5t-70.5 183.5v31q0 111 61 181t168 70q105 0 160.5 -61t55.5 -170zM292 419q-99 0 -115 -111h225q-4 55 -30 83t-80 28z" />
    <glyph glyph-name="f" unicode="f" 
d="M321 97h180v-97h-420v97h130v313h-127v97h127v62q0 79 47.5 125t139.5 46q62 0 96 -19v-99q-36 13 -79 13q-46 0 -70 -16.5t-24 -56.5v-55h177v-97h-177v-313z" />
    <glyph glyph-name="g" unicode="g" 
d="M400 507h101v-486q0 -94 -57.5 -154t-173.5 -60q-103 0 -165 38v107q63 -38 159 -38q64 0 95.5 25.5t31.5 87.5v24q-48 -48 -126 -48q-99 0 -153.5 68.5t-54.5 174.5v27q0 105 54.5 174t153.5 69q85 0 135 -58v49zM280 110q76 0 111 58v183q-35 58 -111 58
q-57 0 -84 -37.5t-27 -101.5v-21q0 -64 27 -101.5t84 -37.5z" />
    <glyph glyph-name="h" unicode="h" 
d="M332 518q82 0 128 -46.5t46 -126.5v-345h-110v318q0 47 -20 70.5t-67 23.5q-69 0 -120 -54v-358h-110v730h110v-264q59 52 143 52z" />
    <glyph glyph-name="i" unicode="i" 
d="M295 583q-33 0 -56 22.5t-23 54.5t23 54.5t56 22.5t56 -22.5t23 -54.5t-23 -54.5t-56 -22.5zM359 97h154v-97h-424v97h160v313h-140v97h250v-410z" />
    <glyph glyph-name="j" unicode="j" 
d="M334 583q-33 0 -56 22.5t-23 54.5t23 54.5t56 22.5t56 -22.5t23 -54.5t-23 -54.5t-56 -22.5zM112 507h285v-537q0 -163 -192 -163q-81 0 -125 19v102q51 -15 104 -15q57 0 80 18t23 62v417h-175v97z" />
    <glyph glyph-name="k" unicode="k" 
d="M545 0h-142l-208 252v-252h-110v730h110v-441l197 218h138l-215 -233z" />
    <glyph glyph-name="l" unicode="l" 
d="M346 97h152v-97h-415v97h153v536h-133v97h243v-633z" />
    <glyph glyph-name="m" unicode="m" 
d="M438 517q102 0 102 -143v-374h-101v347q0 40 -7 56.5t-28 16.5q-33 0 -63 -42v-4v-374h-101v347q0 41 -6.5 57t-29.5 16q-32 0 -61 -40v-380h-101v507h92v-48q43 58 104 58q62 0 87 -53q51 53 113 53z" />
    <glyph glyph-name="n" unicode="n" 
d="M332 518q82 0 128 -46.5t46 -126.5v-345h-110v318q0 47 -20 70.5t-67 23.5q-69 0 -120 -54v-358h-110v507h100v-51q60 62 153 62z" />
    <glyph glyph-name="o" unicode="o" 
d="M290 -13q-111 0 -172 71t-61 180v31q0 109 61 180t172 71t172 -71t61 -180v-31q0 -109 -61 -180t-172 -71zM290 91q61 0 91 41t30 109v25q0 68 -30 109t-91 41t-91 -41t-30 -109v-25q0 -68 30 -109t91 -41z" />
    <glyph glyph-name="p" unicode="p" 
d="M315 516q100 0 154 -70t54 -177v-31q0 -107 -54 -177t-154 -70q-78 0 -126 51v-222h-110v687h100v-53q49 62 136 62zM411 241v25q0 65 -27 104t-84 39q-73 0 -111 -62v-187q38 -62 111 -62q57 0 84 39t27 104z" />
    <glyph glyph-name="q" unicode="q" 
d="M401 507h100v-687h-110v222q-48 -51 -126 -51q-100 0 -154 70t-54 177v31q0 107 54 177t154 70q87 0 136 -62v53zM280 98q73 0 111 62v187q-38 62 -111 62q-57 0 -84 -39t-27 -104v-25q0 -65 27 -104t84 -39z" />
    <glyph glyph-name="r" unicode="r" 
d="M506 397q-70 -1 -123.5 -23.5t-81.5 -59.5v-217h153v-97h-378v97h115v313h-103v97h204v-89q30 45 88 71t126 26v-118z" />
    <glyph glyph-name="s" unicode="s" 
d="M287 -12q-121 0 -184 44v107q86 -50 185 -50q98 0 98 53q0 21 -17 32.5t-60 25.5l-45 15q-81 26 -118.5 58.5t-37.5 91.5q0 71 56 112.5t150 41.5t148 -28v-107q-67 34 -150 34q-95 0 -95 -49q0 -19 17.5 -30t64.5 -25l44 -14q77 -25 115 -58t38 -96q0 -72 -55.5 -115
t-153.5 -43z" />
    <glyph glyph-name="t" unicode="t" 
d="M304 180q0 -46 20.5 -64.5t73.5 -18.5q57 0 100 17v-101q-47 -21 -119 -21q-185 0 -185 172v246h-140v97h140v156l110 37v-193h198v-97h-198v-230z" />
    <glyph glyph-name="u" unicode="u" 
d="M390 507h110v-507h-101v51q-60 -62 -149 -62q-82 0 -128 46.5t-46 126.5v345h110v-318q0 -47 19.5 -70.5t66.5 -23.5q69 0 118 55v357z" />
    <glyph glyph-name="v" unicode="v" 
d="M422 507h118l-178 -507h-145l-177 507h118l132 -400z" />
    <glyph glyph-name="w" unicode="w" 
d="M445 507h104l-62 -507h-140l-57 247l-57 -247h-140l-62 507h107l37 -425l75 294h83l75 -294z" />
    <glyph glyph-name="x" unicode="x" 
d="M537 0h-129l-118 183l-118 -183h-129l173 260l-164 247h129l109 -171l108 171h130l-164 -247z" />
    <glyph glyph-name="y" unicode="y" 
d="M419 507h116l-176 -489q-42 -115 -86 -162.5t-125 -47.5q-45 0 -68 10v103q21 -8 51 -8q77 0 108 80l-188 514h117l127 -355z" />
    <glyph glyph-name="z" unicode="z" 
d="M89 0v95l264 315h-251v97h389v-95l-265 -315h265v-97h-402z" />
    <glyph glyph-name="braceleft" unicode="{" 
d="M324 432q0 -118 -97 -136v-2q97 -18 97 -136v-134q0 -49 18 -64t63 -15h46v-85h-87q-78 0 -113 34.5t-35 122.5v125q0 62 -16 84t-71 22v94q55 0 71 22t16 84v125q0 88 35 122.5t113 34.5h87v-85h-46q-45 0 -63 -15t-18 -64v-134z" />
    <glyph glyph-name="bar" unicode="|" 
d="M238 -110v900h104v-900h-104z" />
    <glyph glyph-name="braceright" unicode="}" 
d="M345 448q0 -62 16 -84t71 -22v-94q-55 0 -71 -22t-16 -84v-125q0 -88 -35 -122.5t-113 -34.5h-87v85h46q45 0 63 15t18 64v134q0 118 97 136v2q-97 18 -97 136v134q0 49 -18 64t-63 15h-46v85h87q78 0 113 -34.5t35 -122.5v-125z" />
    <glyph glyph-name="asciitilde" unicode="~" 
d="M452 421h76q-2 -72 -36 -118t-99 -46q-42 0 -109 40.5t-95 40.5q-55 0 -61 -81h-76q2 72 36 118t99 46q42 0 109 -40.5t95 -40.5q55 0 61 81z" />
    <glyph glyph-name="uni00A0" unicode="&#xa0;" 
 />
    <glyph glyph-name="exclamdown" unicode="&#xa1;" 
d="M250 519q35 0 59.5 -24.5t24.5 -58.5q0 -35 -24.5 -59t-59.5 -24t-59.5 24t-24.5 59q0 34 24.5 58.5t59.5 24.5zM327 294v-485h-114v485h114z" />
    <glyph glyph-name="cent" unicode="&#xa2;" 
d="M489 382q-57 30 -125 31v-319q68 1 125 31v-107q-45 -27 -125 -30v-98h-67v102q-100 15 -154.5 83t-54.5 163v31q0 95 54.5 163t154.5 83v86h67v-82q80 -3 125 -30v-107zM200 241q0 -113 97 -140v305q-97 -27 -97 -140v-25z" />
    <glyph glyph-name="sterling" unicode="&#xa3;" 
d="M221 103h287v-103h-437v74q98 67 98 162q0 22 -7 50h-90v86h56q-35 78 -35 133q0 89 61.5 148.5t172.5 59.5q57 0 102 -15t65 -35v-103q-73 52 -160 52q-67 0 -99 -30.5t-32 -81.5q0 -11 2 -23.5t3.5 -20.5t7 -22.5t7.5 -19l10 -22.5t9 -20h176v-86h-149q4 -17 4 -43
q0 -83 -52 -140z" />
    <glyph glyph-name="currency" unicode="&#xa4;" 
d="M515 315q0 -75 -44 -133l66 -66l-49 -49l-66 65q-59 -43 -133 -43t-133 43l-65 -65l-49 49l65 65q-43 61 -43 134q0 74 43 133l-65 65l49 49l65 -65q58 44 133 44q74 0 134 -44l65 65l49 -49l-65 -65q43 -61 43 -133zM152 315q0 -58 40 -98.5t97 -40.5t97 40.5t40 98.5
q0 57 -40 97.5t-97 40.5t-97 -40.5t-40 -97.5z" />
    <glyph glyph-name="yen" unicode="&#xa5;" 
d="M555 700l-180 -306h126v-77h-156v-72h156v-77h-156v-168h-110v168h-155v77h155v72h-155v77h125l-180 306h120l144 -251l144 251h122z" />
    <glyph glyph-name="brokenbar" unicode="&#xa6;" 
d="M238 390v400h104v-400h-104zM238 -110v400h104v-400h-104z" />
    <glyph glyph-name="section" unicode="&#xa7;" 
d="M421 203q38 -35 38 -92q0 -71 -52 -112.5t-141 -41.5q-77 0 -125 28v98q58 -32 128 -32q39 0 60.5 14.5t21.5 37.5q0 20 -16 33t-54 26l-48 16q-74 26 -109.5 60t-35.5 99q0 83 71 127q-38 35 -38 92q0 71 52 112.5t141 41.5q77 0 125 -28v-98q-58 32 -128 32
q-39 0 -60.5 -14.5t-21.5 -37.5q0 -20 16 -33t54 -26l48 -16q74 -26 109.5 -60t35.5 -99q0 -83 -71 -127zM266 275l45 -16q75 13 75 67q0 23 -17 38t-55 28l-45 16q-75 -13 -75 -67q0 -23 17 -38t55 -28z" />
    <glyph glyph-name="dieresis" unicode="&#xa8;" 
d="M208 590q-30 0 -51 20.5t-21 50.5q0 29 21.5 49.5t50.5 20.5q30 0 51.5 -20.5t21.5 -49.5q0 -30 -21.5 -50.5t-51.5 -20.5zM412 590q-30 0 -51 20.5t-21 50.5q0 29 21 49.5t51 20.5q29 0 50.5 -20.5t21.5 -49.5q0 -30 -21 -50.5t-51 -20.5z" />
    <glyph glyph-name="copyright" unicode="&#xa9;" 
d="M290 84q-111 0 -186 74.5t-75 186.5t75 186.5t186 74.5t186 -74.5t75 -186.5t-75 -186.5t-186 -74.5zM290 131q90 0 150 61.5t60 152.5t-60 152.5t-150 61.5t-150.5 -61.5t-60.5 -152.5t60.5 -152.5t150.5 -61.5zM306 196q-72 0 -114 42t-42 107t42 107t114 42
q38 0 67 -15v-69q-32 16 -67 16q-38 0 -60.5 -21.5t-22.5 -59.5t23 -60t60 -22q36 0 67 17v-69q-27 -15 -67 -15z" />
    <glyph glyph-name="ordfeminine" unicode="&#xaa;" 
d="M376 730h85v-370h-85v37q-38 -44 -99 -44q-75 0 -116.5 52t-41.5 130v20q0 78 41.5 130t116.5 52q61 0 99 -44v37zM368 605q-27 42 -78 42q-77 0 -77 -94v-16q0 -94 77 -94q51 0 78 42v120z" />
    <glyph glyph-name="guillemotleft" unicode="&#xab;" 
d="M229 65l-159 193v9l159 192h123l-162 -197l162 -197h-123zM427 65l-159 193v9l159 192h123l-162 -197l162 -197h-123z" />
    <glyph glyph-name="logicalnot" unicode="&#xac;" 
d="M499 392v-254h-96v164h-322v90h418z" />
    <glyph glyph-name="uni00AD" unicode="&#xad;" 
d="M143 257v107h294v-107h-294z" />
    <glyph glyph-name="registered" unicode="&#xae;" 
d="M289 268q-94 0 -157.5 63.5t-63.5 157.5q0 95 63.5 158.5t157.5 63.5q95 0 158.5 -63.5t63.5 -158.5q0 -94 -64 -157.5t-158 -63.5zM289 304q78 0 129.5 53t51.5 132q0 80 -51 133t-130 53q-78 0 -129 -52.5t-51 -133.5q0 -79 51 -132t129 -53zM204 373v242h98
q35 0 57.5 -21.5t22.5 -54.5q0 -48 -49 -67l63 -99h-49l-57 94h-42v-94h-44zM248 503h45q46 0 46 36q0 37 -46 37h-45v-73z" />
    <glyph glyph-name="macron" unicode="&#xaf;" 
d="M171 697h278v-86h-278v86z" />
    <glyph glyph-name="degree" unicode="&#xb0;" 
d="M290 475q-57 0 -97 39t-40 95q0 57 40 95.5t97 38.5t97 -38.5t40 -95.5q0 -56 -40 -95t-97 -39zM290 536q31 0 51.5 20.5t20.5 52.5t-20.5 53t-51.5 21t-51.5 -21t-20.5 -53t20.5 -52.5t51.5 -20.5z" />
    <glyph glyph-name="plusminus" unicode="&#xb1;" 
d="M358 392h181v-90h-181v-164h-96v164h-141v90h141v164h96v-164zM101 4v90h418v-90h-418z" />
    <glyph glyph-name="uni00B2" unicode="&#xb2;" 
d="M303 520q-48 -38 -59 -60h190v-77h-288v28q0 46 21.5 82t75.5 79l34 27q29 22 41 33t22 26.5t10 31.5q0 42 -67 42q-66 0 -117 -44v85q43 40 125 40q68 0 105.5 -35t37.5 -86q0 -41 -21 -72t-79 -76z" />
    <glyph glyph-name="uni00B3" unicode="&#xb3;" 
d="M320 637q52 -7 83 -39t31 -85q0 -61 -45 -100.5t-118 -39.5q-75 0 -125 30v84q53 -33 124 -33q38 0 59.5 16.5t21.5 41.5q0 23 -19 37t-53 14q-31 0 -46 -7l-38 53l117 117h-162v77h263v-75z" />
    <glyph glyph-name="acute" unicode="&#xb4;" 
d="M206 598l85 132h122l-99 -132h-108z" />
    <glyph glyph-name="uni00B5" unicode="&#xb5;" 
d="M535 97q10 0 24 2v-99q-32 -6 -54 -6q-76 0 -98 62q-61 -67 -143 -67q-51 0 -79 25v-193h-110v686h110v-323q0 -45 18.5 -67t62.5 -22q74 0 122 54v358h110v-358q0 -28 7.5 -40t29.5 -12z" />
    <glyph glyph-name="paragraph" unicode="&#xb6;" 
d="M537 700v-840h-90v753h-93v-753h-90v402h-24q-91 0 -148.5 60t-57.5 159t57.5 159t148.5 60h297z" />
    <glyph glyph-name="periodcentered" unicode="&#xb7;" 
d="M310 264q-35 0 -59.5 24.5t-24.5 58.5q0 35 24.5 59t59.5 24t59.5 -24t24.5 -59q0 -34 -24.5 -58.5t-59.5 -24.5z" />
    <glyph glyph-name="cedilla" unicode="&#xb8;" 
d="M326 -53q46 -3 75 -25.5t29 -64.5q0 -48 -35 -73t-88 -25q-75 0 -117 34l26 55q39 -27 89 -27q53 0 53 36q0 33 -63 33q-18 0 -30 -3l-24 32l46 96l65 -15z" />
    <glyph glyph-name="uni00B9" unicode="&#xb9;" 
d="M334 451h101v-68h-290v68h105v254l-99 -27v78l141 46h42v-351z" />
    <glyph glyph-name="ordmasculine" unicode="&#xba;" 
d="M289 349q-84 0 -129.5 52.5t-45.5 133.5v20q0 81 45.5 133.5t129.5 52.5t130.5 -52.5t46.5 -133.5v-20q0 -81 -46.5 -133.5t-130.5 -52.5zM289 437q42 0 62.5 27t20.5 73v16q0 46 -20.5 73t-62.5 27q-41 0 -61 -27t-20 -73v-16q0 -46 20 -73t61 -27z" />
    <glyph glyph-name="guillemotright" unicode="&#xbb;" 
d="M173 65h-123l162 197l-162 197h123l159 -192v-9zM371 65h-123l162 197l-162 197h123l159 -192v-9z" />
    <glyph glyph-name="onequarter" unicode="&#xbc;" 
d="M462 700h62l-366 -700h-62zM50 407v52h74v168l-70 -18v58l101 32h31v-240h72v-52h-208zM529 110h41v-58h-41v-52h-62v52h-134v55l106 187h90v-184zM398 110h69v123z" />
    <glyph glyph-name="onehalf" unicode="&#xbd;" 
d="M462 700h62l-366 -700h-62zM50 407v52h74v168l-70 -18v58l101 32h31v-240h72v-52h-208zM477 95q-31 -25 -39 -37h132v-58h-207v21q0 33 15 59t53 54l25 18q27 20 39 32.5t12 27.5q0 28 -48 28q-45 0 -82 -30v63q31 28 88 28q51 0 78 -24.5t27 -64.5q0 -25 -15 -47
t-56 -53z" />
    <glyph glyph-name="threequarters" unicode="&#xbe;" 
d="M258 497q0 -43 -32.5 -70.5t-85.5 -27.5q-51 0 -90 21v63q39 -23 89 -23q27 0 41.5 10t14.5 26q0 33 -49 33q-21 0 -33 -6l-29 40l81 79h-112v58h189v-57l-63 -60q36 -5 57.5 -27.5t21.5 -58.5zM462 700h62l-366 -700h-62zM529 110h41v-58h-41v-52h-62v52h-134v55
l106 187h90v-184zM398 110h69v123z" />
    <glyph glyph-name="questiondown" unicode="&#xbf;" 
d="M305 518q35 0 59.5 -24.5t24.5 -58.5q0 -35 -24.5 -59t-59.5 -24t-59.5 24t-24.5 59q0 34 24.5 58.5t59.5 24.5zM379 293q0 -54 -17.5 -91t-61.5 -83l-32 -33q-34 -36 -50 -60.5t-16 -51.5q0 -37 29.5 -54t76.5 -17q89 0 152 42v-110q-23 -18 -67.5 -29t-86.5 -11
q-100 0 -162.5 41.5t-62.5 125.5q0 52 23.5 91.5t80.5 98.5l44 46q33 33 37 95h113z" />
    <glyph glyph-name="Agrave" unicode="&#xc0;" 
d="M355 761h-108l-99 132h122zM437 0l-43 177h-211l-43 -177h-116l180 700h172l180 -700h-119zM210 287h157l-78 324z" />
    <glyph glyph-name="Aacute" unicode="&#xc1;" 
d="M432 893l-99 -132h-108l85 132h122zM437 0l-43 177h-211l-43 -177h-116l180 700h172l180 -700h-119zM210 287h157l-78 324z" />
    <glyph glyph-name="Acircumflex" unicode="&#xc2;" 
d="M290 838l-63 -77h-97l87 132h145l87 -132h-97zM437 0l-43 177h-211l-43 -177h-116l180 700h172l180 -700h-119zM210 287h157l-78 324z" />
    <glyph glyph-name="Atilde" unicode="&#xc3;" 
d="M225 804q-23 0 -25 -51h-68q3 125 91 125q32 0 67 -21l23 -14q26 -16 41 -16q24 0 26 51h67q-3 -125 -91 -125q-32 0 -67 21l-23 14q-26 16 -41 16zM437 0l-43 177h-211l-43 -177h-116l180 700h172l180 -700h-119zM210 287h157l-78 324z" />
    <glyph glyph-name="Adieresis" unicode="&#xc4;" 
d="M178 755q-27 0 -47 19.5t-20 46.5t20 46.5t47 19.5q28 0 48 -19.5t20 -46.5q0 -28 -20 -47t-48 -19zM402 755q-28 0 -48 19t-20 47q0 27 20 46.5t48 19.5q27 0 47 -19.5t20 -46.5t-20 -46.5t-47 -19.5zM437 0l-43 177h-211l-43 -177h-116l180 700h172l180 -700h-119z
M210 287h157l-78 324z" />
    <glyph glyph-name="Aring" unicode="&#xc5;" 
d="M310 728q-49 0 -81.5 32.5t-32.5 77.5t32.5 77t81.5 32t81.5 -32t32.5 -77t-32.5 -77.5t-81.5 -32.5zM310 891q-24 0 -39 -15.5t-15 -37.5q0 -23 15 -38.5t39 -15.5t39 15.5t15 38.5q0 22 -15 37.5t-39 15.5zM437 0l-43 177h-211l-43 -177h-116l180 700h172l180 -700
h-119zM210 287h157l-78 324z" />
    <glyph glyph-name="AE" unicode="&#xc6;" 
d="M399 110h158v-110h-270v177h-122l-50 -177h-112l204 700h349v-110h-157v-173h132v-110h-132v-197zM197 287h90v318z" />
    <glyph glyph-name="Ccedilla" unicode="&#xc7;" 
d="M363 603q-89 0 -131.5 -57.5t-42.5 -155.5v-80q0 -98 42.5 -155.5t131.5 -57.5q75 0 136 42v-112q-49 -40 -137 -40h-2l-20 -40q46 -3 75 -25.5t29 -64.5q0 -48 -35 -73t-88 -25q-75 0 -117 34l26 55q39 -27 89 -27q53 0 53 36q0 33 -63 33q-18 0 -30 -3l-24 32l36 75
q-108 22 -163 107t-55 206v86q0 141 73.5 230.5t216.5 89.5q87 0 136 -40v-112q-61 42 -136 42z" />
    <glyph glyph-name="Egrave" unicode="&#xc8;" 
d="M356 761h-108l-99 132h122zM194 110h304v-110h-418v700h416v-110h-302v-173h270v-110h-270v-197z" />
    <glyph glyph-name="Eacute" unicode="&#xc9;" 
d="M433 893l-99 -132h-108l85 132h122zM194 110h304v-110h-418v700h416v-110h-302v-173h270v-110h-270v-197z" />
    <glyph glyph-name="Ecircumflex" unicode="&#xca;" 
d="M291 838l-63 -77h-97l87 132h145l87 -132h-97zM194 110h304v-110h-418v700h416v-110h-302v-173h270v-110h-270v-197z" />
    <glyph glyph-name="Edieresis" unicode="&#xcb;" 
d="M179 755q-27 0 -47 19.5t-20 46.5t20 46.5t47 19.5q28 0 48 -19.5t20 -46.5q0 -28 -20 -47t-48 -19zM403 755q-28 0 -48 19t-20 47q0 27 20 46.5t48 19.5q27 0 47 -19.5t20 -46.5t-20 -46.5t-47 -19.5zM194 110h304v-110h-418v700h416v-110h-302v-173h270v-110h-270v-197
z" />
    <glyph glyph-name="Igrave" unicode="&#xcc;" 
d="M355 761h-108l-99 132h122zM488 590h-141v-480h141v-110h-396v110h141v480h-141v110h396v-110z" />
    <glyph glyph-name="Iacute" unicode="&#xcd;" 
d="M432 893l-99 -132h-108l85 132h122zM488 590h-141v-480h141v-110h-396v110h141v480h-141v110h396v-110z" />
    <glyph glyph-name="Icircumflex" unicode="&#xce;" 
d="M290 838l-63 -77h-97l87 132h145l87 -132h-97zM488 590h-141v-480h141v-110h-396v110h141v480h-141v110h396v-110z" />
    <glyph glyph-name="Idieresis" unicode="&#xcf;" 
d="M178 755q-27 0 -47 19.5t-20 46.5t20 46.5t47 19.5q28 0 48 -19.5t20 -46.5q0 -28 -20 -47t-48 -19zM402 755q-28 0 -48 19t-20 47q0 27 20 46.5t48 19.5q27 0 47 -19.5t20 -46.5t-20 -46.5t-47 -19.5zM488 590h-141v-480h141v-110h-396v110h141v480h-141v110h396v-110z
" />
    <glyph glyph-name="Eth" unicode="&#xd0;" 
d="M280 700q122 0 185.5 -86t63.5 -226v-76q0 -140 -63.5 -226t-185.5 -86h-204v299h-63v102h63v299h204zM413 313v74q0 93 -32.5 148t-100.5 55h-90v-189h112v-102h-112v-191h90q68 0 100.5 56t32.5 149z" />
    <glyph glyph-name="Ntilde" unicode="&#xd1;" 
d="M231 804q-23 0 -25 -51h-68q3 125 91 125q33 0 67 -21l23 -14q26 -16 41 -16q24 0 26 51h67q-3 -125 -91 -125q-32 0 -67 21l-23 14q-26 16 -41 16zM397 700h107v-700h-115l-206 495v-495h-107v700h115l206 -495v495z" />
    <glyph glyph-name="Ograve" unicode="&#xd2;" 
d="M355 761h-108l-99 132h122zM290 713q114 0 176.5 -85t62.5 -240v-76q0 -155 -62.5 -240t-176.5 -85t-176.5 85t-62.5 240v76q0 155 62.5 240t176.5 85zM413 387q0 216 -123 216t-123 -216v-74q0 -216 123 -216t123 216v74z" />
    <glyph glyph-name="Oacute" unicode="&#xd3;" 
d="M432 893l-99 -132h-108l85 132h122zM290 713q114 0 176.5 -85t62.5 -240v-76q0 -155 -62.5 -240t-176.5 -85t-176.5 85t-62.5 240v76q0 155 62.5 240t176.5 85zM413 387q0 216 -123 216t-123 -216v-74q0 -216 123 -216t123 216v74z" />
    <glyph glyph-name="Ocircumflex" unicode="&#xd4;" 
d="M290 838l-63 -77h-97l87 132h145l87 -132h-97zM290 713q114 0 176.5 -85t62.5 -240v-76q0 -155 -62.5 -240t-176.5 -85t-176.5 85t-62.5 240v76q0 155 62.5 240t176.5 85zM413 387q0 216 -123 216t-123 -216v-74q0 -216 123 -216t123 216v74z" />
    <glyph glyph-name="Otilde" unicode="&#xd5;" 
d="M225 804q-23 0 -25 -51h-68q3 125 91 125q32 0 67 -21l23 -14q26 -16 41 -16q24 0 26 51h67q-3 -125 -91 -125q-32 0 -67 21l-23 14q-26 16 -41 16zM290 713q114 0 176.5 -85t62.5 -240v-76q0 -155 -62.5 -240t-176.5 -85t-176.5 85t-62.5 240v76q0 155 62.5 240
t176.5 85zM413 387q0 216 -123 216t-123 -216v-74q0 -216 123 -216t123 216v74z" />
    <glyph glyph-name="Odieresis" unicode="&#xd6;" 
d="M178 755q-27 0 -47 19.5t-20 46.5t20 46.5t47 19.5q28 0 48 -19.5t20 -46.5q0 -28 -20 -47t-48 -19zM402 755q-28 0 -48 19t-20 47q0 27 20 46.5t48 19.5q27 0 47 -19.5t20 -46.5t-20 -46.5t-47 -19.5zM290 713q114 0 176.5 -85t62.5 -240v-76q0 -155 -62.5 -240
t-176.5 -85t-176.5 85t-62.5 240v76q0 155 62.5 240t176.5 85zM413 387q0 216 -123 216t-123 -216v-74q0 -216 123 -216t123 216v74z" />
    <glyph glyph-name="multiply" unicode="&#xd7;" 
d="M495 489l-142 -142l142 -142l-63 -63l-142 142l-142 -142l-63 63l142 142l-142 142l63 63l142 -142l142 142z" />
    <glyph glyph-name="Oslash" unicode="&#xd8;" 
d="M530 697l-50 -90q49 -83 49 -219v-76q0 -155 -62.5 -240t-176.5 -85q-77 0 -131 40l-36 -65l-74 41l50 91q-48 84 -48 218v76q0 155 62.5 240t176.5 85q75 0 131 -39l36 64zM167 313q0 -49 6 -86l192 345q-28 31 -75 31q-123 0 -123 -216v-74zM413 387q0 52 -7 87
l-191 -346q28 -31 75 -31q123 0 123 216v74z" />
    <glyph glyph-name="Ugrave" unicode="&#xd9;" 
d="M355 761h-108l-99 132h122zM511 700v-493q0 -99 -55.5 -159.5t-165.5 -60.5t-165.5 60.5t-55.5 159.5v493h115v-492q0 -52 25.5 -82.5t80.5 -30.5t80.5 30.5t25.5 82.5v492h115z" />
    <glyph glyph-name="Uacute" unicode="&#xda;" 
d="M225 761l85 132h122l-99 -132h-108zM511 700v-493q0 -99 -55.5 -159.5t-165.5 -60.5t-165.5 60.5t-55.5 159.5v493h115v-492q0 -52 25.5 -82.5t80.5 -30.5t80.5 30.5t25.5 82.5v492h115z" />
    <glyph glyph-name="Ucircumflex" unicode="&#xdb;" 
d="M290 838l-63 -77h-97l87 132h145l87 -132h-97zM396 700h115v-493q0 -99 -55.5 -159.5t-165.5 -60.5t-165.5 60.5t-55.5 159.5v493h115v-492q0 -52 25.5 -82.5t80.5 -30.5t80.5 30.5t25.5 82.5v492z" />
    <glyph glyph-name="Udieresis" unicode="&#xdc;" 
d="M178 755q-27 0 -47 19.5t-20 46.5t20 46.5t47 19.5q28 0 48 -19.5t20 -46.5q0 -28 -20 -47t-48 -19zM402 755q-28 0 -48 19t-20 47q0 27 20 46.5t48 19.5q27 0 47 -19.5t20 -46.5t-20 -46.5t-47 -19.5zM511 700v-493q0 -99 -55.5 -159.5t-165.5 -60.5t-165.5 60.5
t-55.5 159.5v493h115v-492q0 -52 25.5 -82.5t80.5 -30.5t80.5 30.5t25.5 82.5v492h115z" />
    <glyph glyph-name="Yacute" unicode="&#xdd;" 
d="M432 893l-99 -132h-108l85 132h122zM553 700l-206 -394v-306h-114v306l-206 394h125l139 -278l140 278h122z" />
    <glyph glyph-name="Thorn" unicode="&#xde;" 
d="M308 572q102 0 166.5 -59.5t64.5 -158.5t-64.5 -158.5t-166.5 -59.5h-114v-136h-113v700h113v-128h114zM306 246q58 0 88.5 30t30.5 78t-30.5 78t-88.5 30h-112v-216h112z" />
    <glyph glyph-name="germandbls" unicode="&#xdf;" 
d="M375 -9q-76 0 -122 34v103q56 -38 117 -38q33 0 52 16.5t19 44.5q0 24 -13.5 39.5t-45.5 36.5l-33 20q-52 33 -73.5 60t-21.5 67q0 27 11.5 50.5t27.5 41t32 34t27.5 37.5t11.5 43q0 27 -22 46t-62 19q-49 0 -77 -34.5t-28 -94.5v-516h-110v523q0 104 60 162t161 58
q94 0 142.5 -45.5t48.5 -107.5q0 -34 -11 -61.5t-26.5 -44.5t-31.5 -31.5t-27 -29t-11 -30.5q0 -18 13.5 -32.5t46.5 -34.5l31 -18q89 -54 89 -149q0 -79 -50 -123.5t-125 -44.5z" />
    <glyph glyph-name="agrave" unicode="&#xe0;" 
d="M362 598h-108l-99 132h122zM401 507h100v-507h-100v53q-49 -62 -136 -62q-100 0 -154 70t-54 177v31q0 107 54 177t154 70q87 0 136 -62v53zM280 98q73 0 111 62v187q-38 62 -111 62q-57 0 -84 -39t-27 -104v-25q0 -65 27 -104t84 -39z" />
    <glyph glyph-name="aacute" unicode="&#xe1;" 
d="M439 730l-99 -132h-108l85 132h122zM401 507h100v-507h-100v53q-49 -62 -136 -62q-100 0 -154 70t-54 177v31q0 107 54 177t154 70q87 0 136 -62v53zM280 98q73 0 111 62v187q-38 62 -111 62q-57 0 -84 -39t-27 -104v-25q0 -65 27 -104t84 -39z" />
    <glyph glyph-name="acircumflex" unicode="&#xe2;" 
d="M297 675l-63 -77h-97l87 132h145l87 -132h-97zM401 507h100v-507h-100v53q-49 -62 -136 -62q-100 0 -154 70t-54 177v31q0 107 54 177t154 70q87 0 136 -62v53zM280 98q73 0 111 62v187q-38 62 -111 62q-57 0 -84 -39t-27 -104v-25q0 -65 27 -104t84 -39z" />
    <glyph glyph-name="atilde" unicode="&#xe3;" 
d="M232 641q-23 0 -25 -51h-68q3 125 91 125q32 0 67 -21l23 -14q26 -16 41 -16q24 0 26 51h67q-3 -125 -91 -125q-33 0 -67 21l-23 14q-26 16 -41 16zM401 507h100v-507h-100v53q-49 -62 -136 -62q-100 0 -154 70t-54 177v31q0 107 54 177t154 70q87 0 136 -62v53zM280 98
q73 0 111 62v187q-38 62 -111 62q-57 0 -84 -39t-27 -104v-25q0 -65 27 -104t84 -39z" />
    <glyph glyph-name="adieresis" unicode="&#xe4;" 
d="M195 590q-30 0 -51 20.5t-21 50.5q0 29 21.5 49.5t50.5 20.5q30 0 51.5 -20.5t21.5 -49.5q0 -30 -21.5 -50.5t-51.5 -20.5zM399 590q-30 0 -51 20.5t-21 50.5q0 29 21 49.5t51 20.5q29 0 50.5 -20.5t21.5 -49.5q0 -30 -21 -50.5t-51 -20.5zM401 507h100v-507h-100v53
q-49 -62 -136 -62q-100 0 -154 70t-54 177v31q0 107 54 177t154 70q87 0 136 -62v53zM280 98q73 0 111 62v187q-38 62 -111 62q-57 0 -84 -39t-27 -104v-25q0 -65 27 -104t84 -39z" />
    <glyph glyph-name="aring" unicode="&#xe5;" 
d="M297 572q-49 0 -81.5 32.5t-32.5 77.5t32.5 77t81.5 32t81.5 -32t32.5 -77t-32.5 -77.5t-81.5 -32.5zM297 735q-24 0 -39 -15.5t-15 -37.5q0 -23 15 -38.5t39 -15.5t39 15.5t15 38.5q0 22 -15 37.5t-39 15.5zM401 507h100v-507h-100v53q-49 -62 -136 -62q-100 0 -154 70
t-54 177v31q0 107 54 177t154 70q87 0 136 -62v53zM280 98q73 0 111 62v187q-38 62 -111 62q-57 0 -84 -39t-27 -104v-25q0 -65 27 -104t84 -39z" />
    <glyph glyph-name="ae" unicode="&#xe6;" 
d="M543 225h-218v-5q0 -73 24 -105t72 -32q61 0 97 36v-96q-32 -34 -102 -34q-91 0 -140 62q-40 -61 -115 -61q-53 0 -91 42.5t-38 109.5q0 47 15 80.5t43.5 52t62 27.5t77.5 11v39q0 38 -15.5 54t-51.5 16q-62 0 -105 -48v103q48 42 119 42q72 0 109 -43q40 43 102 43
q75 0 115 -53t40 -157v-84zM386 428q-32 0 -45.5 -29t-15.5 -93h124q1 66 -12.5 94t-50.5 28zM183 83q38 0 59 39q-12 41 -12 95v12q-53 -4 -76.5 -21.5t-23.5 -60.5q0 -29 16 -46.5t37 -17.5z" />
    <glyph glyph-name="ccedilla" unicode="&#xe7;" 
d="M347 413q-80 0 -118.5 -39.5t-38.5 -107.5v-25q0 -68 38.5 -107.5t118.5 -39.5q72 0 132 31v-107q-51 -30 -139 -30l-20 -41q46 -3 75 -25.5t29 -64.5q0 -48 -35 -73t-88 -25q-75 0 -117 34l26 55q39 -27 89 -27q53 0 53 36q0 33 -63 33q-18 0 -30 -3l-24 32l36 76
q-93 19 -143 85.5t-50 157.5v31q0 108 68.5 179t193.5 71q88 0 139 -30v-107q-60 31 -132 31z" />
    <glyph glyph-name="egrave" unicode="&#xe8;" 
d="M373 598h-108l-99 132h122zM510 289v-71h-335q12 -124 160 -124q79 0 144 38v-106q-52 -38 -149 -38q-124 0 -194.5 66.5t-70.5 183.5v31q0 111 61 181t168 70q105 0 160.5 -61t55.5 -170zM292 419q-99 0 -115 -111h225q-4 55 -30 83t-80 28z" />
    <glyph glyph-name="eacute" unicode="&#xe9;" 
d="M450 730l-99 -132h-108l85 132h122zM510 289v-71h-335q12 -124 160 -124q79 0 144 38v-106q-52 -38 -149 -38q-124 0 -194.5 66.5t-70.5 183.5v31q0 111 61 181t168 70q105 0 160.5 -61t55.5 -170zM292 419q-99 0 -115 -111h225q-4 55 -30 83t-80 28z" />
    <glyph glyph-name="ecircumflex" unicode="&#xea;" 
d="M308 675l-63 -77h-97l87 132h145l87 -132h-97zM510 289v-71h-335q12 -124 160 -124q79 0 144 38v-106q-52 -38 -149 -38q-124 0 -194.5 66.5t-70.5 183.5v31q0 111 61 181t168 70q105 0 160.5 -61t55.5 -170zM292 419q-99 0 -115 -111h225q-4 55 -30 83t-80 28z" />
    <glyph glyph-name="edieresis" unicode="&#xeb;" 
d="M206 590q-30 0 -51 20.5t-21 50.5q0 29 21.5 49.5t50.5 20.5q30 0 51.5 -20.5t21.5 -49.5q0 -30 -21.5 -50.5t-51.5 -20.5zM410 590q-30 0 -51 20.5t-21 50.5q0 29 21 49.5t51 20.5q29 0 50.5 -20.5t21.5 -49.5q0 -30 -21 -50.5t-51 -20.5zM510 289v-71h-335
q12 -124 160 -124q79 0 144 38v-106q-52 -38 -149 -38q-124 0 -194.5 66.5t-70.5 183.5v31q0 111 61 181t168 70q105 0 160.5 -61t55.5 -170zM292 419q-99 0 -115 -111h225q-4 55 -30 83t-80 28z" />
    <glyph glyph-name="igrave" unicode="&#xec;" 
d="M360 598h-108l-99 132h122zM359 97h154v-97h-424v97h160v313h-140v97h250v-410z" />
    <glyph glyph-name="iacute" unicode="&#xed;" 
d="M437 730l-99 -132h-108l85 132h122zM359 97h154v-97h-424v97h160v313h-140v97h250v-410z" />
    <glyph glyph-name="icircumflex" unicode="&#xee;" 
d="M295 675l-63 -77h-97l87 132h145l87 -132h-97zM359 97h154v-97h-424v97h160v313h-140v97h250v-410z" />
    <glyph glyph-name="idieresis" unicode="&#xef;" 
d="M193 590q-30 0 -51 20.5t-21 50.5q0 29 21.5 49.5t50.5 20.5q30 0 51.5 -20.5t21.5 -49.5q0 -30 -21.5 -50.5t-51.5 -20.5zM397 590q-30 0 -51 20.5t-21 50.5q0 29 21 49.5t51 20.5q29 0 50.5 -20.5t21.5 -49.5q0 -30 -21 -50.5t-51 -20.5zM359 97h154v-97h-424v97h160
v313h-140v97h250v-410z" />
    <glyph glyph-name="eth" unicode="&#xf0;" 
d="M425 606q96 -135 96 -339v-33q0 -115 -61.5 -181t-168.5 -66q-108 0 -170 66t-62 180v30q0 101 60.5 163.5t158.5 62.5q60 0 106 -27q-20 52 -60 107l-123 -46l-22 67l96 36q-44 47 -117 104h149q43 -37 70 -66l95 35l24 -67zM409 237v20q0 51 -5 84q-37 44 -114 44
q-56 0 -87.5 -33.5t-31.5 -94.5v-20q0 -145 119 -145t119 145z" />
    <glyph glyph-name="ntilde" unicode="&#xf1;" 
d="M228 641q-23 0 -25 -51h-68q3 125 91 125q32 0 67 -21l23 -14q26 -16 41 -16q24 0 26 51h67q-3 -125 -91 -125q-33 0 -67 21l-23 14q-26 16 -41 16zM332 518q82 0 128 -46.5t46 -126.5v-345h-110v318q0 47 -20 70.5t-67 23.5q-69 0 -120 -54v-358h-110v507h100v-51
q60 62 153 62z" />
    <glyph glyph-name="ograve" unicode="&#xf2;" 
d="M355 598h-108l-99 132h122zM290 -13q-111 0 -172 71t-61 180v31q0 109 61 180t172 71t172 -71t61 -180v-31q0 -109 -61 -180t-172 -71zM290 91q61 0 91 41t30 109v25q0 68 -30 109t-91 41t-91 -41t-30 -109v-25q0 -68 30 -109t91 -41z" />
    <glyph glyph-name="oacute" unicode="&#xf3;" 
d="M225 598l85 132h122l-99 -132h-108zM290 -13q-111 0 -172 71t-61 180v31q0 109 61 180t172 71t172 -71t61 -180v-31q0 -109 -61 -180t-172 -71zM290 91q61 0 91 41t30 109v25q0 68 -30 109t-91 41t-91 -41t-30 -109v-25q0 -68 30 -109t91 -41z" />
    <glyph glyph-name="ocircumflex" unicode="&#xf4;" 
d="M290 675l-63 -77h-97l87 132h145l87 -132h-97zM290 520q111 0 172 -71t61 -180v-31q0 -109 -61 -180t-172 -71t-172 71t-61 180v31q0 109 61 180t172 71zM411 241v25q0 68 -30 109t-91 41t-91 -41t-30 -109v-25q0 -68 30 -109t91 -41t91 41t30 109z" />
    <glyph glyph-name="otilde" unicode="&#xf5;" 
d="M132 590q3 125 91 125q32 0 67 -21l23 -14q26 -16 41 -16q24 0 26 51h67q-3 -125 -91 -125q-32 0 -67 21l-23 14q-26 16 -41 16q-23 0 -25 -51h-68zM290 -13q-111 0 -172 71t-61 180v31q0 109 61 180t172 71t172 -71t61 -180v-31q0 -109 -61 -180t-172 -71zM290 91
q61 0 91 41t30 109v25q0 68 -30 109t-91 41t-91 -41t-30 -109v-25q0 -68 30 -109t91 -41z" />
    <glyph glyph-name="odieresis" unicode="&#xf6;" 
d="M188 590q-30 0 -51 20.5t-21 50.5q0 29 21.5 49.5t50.5 20.5q30 0 51.5 -20.5t21.5 -49.5q0 -30 -21.5 -50.5t-51.5 -20.5zM392 590q-30 0 -51 20.5t-21 50.5q0 29 21 49.5t51 20.5q29 0 50.5 -20.5t21.5 -49.5q0 -30 -21 -50.5t-51 -20.5zM290 -13q-111 0 -172 71
t-61 180v31q0 109 61 180t172 71t172 -71t61 -180v-31q0 -109 -61 -180t-172 -71zM290 91q61 0 91 41t30 109v25q0 68 -30 109t-91 41t-91 -41t-30 -109v-25q0 -68 30 -109t91 -41z" />
    <glyph glyph-name="divide" unicode="&#xf7;" 
d="M349 448q-33 0 -56 22.5t-23 54.5t23 54.5t56 22.5t56 -22.5t23 -54.5t-23 -54.5t-56 -22.5zM120 302v90h418v-90h-418zM349 92q-33 0 -56 22.5t-23 54.5t23 54.5t56 22.5t56 -22.5t23 -54.5t-23 -54.5t-56 -22.5z" />
    <glyph glyph-name="oslash" unicode="&#xf8;" 
d="M468 442q55 -67 55 -173v-31q0 -109 -61 -180t-172 -71q-68 0 -121 29l-26 -37l-62 42l31 44q-55 67 -55 173v31q0 109 61 180t172 71q68 0 121 -29l26 37l62 -42zM169 241q0 -44 12 -77l168 239q-26 13 -59 13q-61 0 -91 -41t-30 -109v-25zM411 241v25q0 44 -12 77
l-168 -239q26 -13 59 -13q61 0 91 41t30 109z" />
    <glyph glyph-name="ugrave" unicode="&#xf9;" 
d="M356 598h-108l-99 132h122zM390 507h110v-507h-101v51q-60 -62 -149 -62q-82 0 -128 46.5t-46 126.5v345h110v-318q0 -47 19.5 -70.5t66.5 -23.5q69 0 118 55v357z" />
    <glyph glyph-name="uacute" unicode="&#xfa;" 
d="M433 730l-99 -132h-108l85 132h122zM390 507h110v-507h-101v51q-60 -62 -149 -62q-82 0 -128 46.5t-46 126.5v345h110v-318q0 -47 19.5 -70.5t66.5 -23.5q69 0 118 55v357z" />
    <glyph glyph-name="ucircumflex" unicode="&#xfb;" 
d="M291 675l-63 -77h-97l87 132h145l87 -132h-97zM390 507h110v-507h-101v51q-60 -62 -149 -62q-82 0 -128 46.5t-46 126.5v345h110v-318q0 -47 19.5 -70.5t66.5 -23.5q69 0 118 55v357z" />
    <glyph glyph-name="udieresis" unicode="&#xfc;" 
d="M189 590q-30 0 -51 20.5t-21 50.5q0 29 21.5 49.5t50.5 20.5q30 0 51.5 -20.5t21.5 -49.5q0 -30 -21.5 -50.5t-51.5 -20.5zM393 590q-30 0 -51 20.5t-21 50.5q0 29 21 49.5t51 20.5q29 0 50.5 -20.5t21.5 -49.5q0 -30 -21 -50.5t-51 -20.5zM390 507h110v-507h-101v51
q-60 -62 -149 -62q-82 0 -128 46.5t-46 126.5v345h110v-318q0 -47 19.5 -70.5t66.5 -23.5q69 0 118 55v357z" />
    <glyph glyph-name="yacute" unicode="&#xfd;" 
d="M435 730l-99 -132h-108l85 132h122zM419 507h116l-176 -489q-42 -115 -86 -162.5t-125 -47.5q-45 0 -68 10v103q21 -8 51 -8q77 0 108 80l-188 514h117l127 -355z" />
    <glyph glyph-name="thorn" unicode="&#xfe;" 
d="M315 516q100 0 154 -70t54 -177v-31q0 -107 -54 -177t-154 -70q-78 0 -126 51v-222h-110v910h110v-265q48 51 126 51zM411 241v25q0 65 -27 104t-84 39q-73 0 -111 -62v-187q38 -62 111 -62q57 0 84 39t27 104z" />
    <glyph glyph-name="ydieresis" unicode="&#xff;" 
d="M191 590q-30 0 -51 20.5t-21 50.5q0 29 21.5 49.5t50.5 20.5q30 0 51.5 -20.5t21.5 -49.5q0 -30 -21.5 -50.5t-51.5 -20.5zM395 590q-30 0 -51 20.5t-21 50.5q0 29 21 49.5t51 20.5q29 0 50.5 -20.5t21.5 -49.5q0 -30 -21 -50.5t-51 -20.5zM419 507h116l-176 -489
q-42 -115 -86 -162.5t-125 -47.5q-45 0 -68 10v103q21 -8 51 -8q77 0 108 80l-188 514h117l127 -355z" />
    <glyph glyph-name="Amacron" unicode="&#x100;" 
d="M429 860v-86h-278v86h278zM437 0l-43 177h-211l-43 -177h-116l180 700h172l180 -700h-119zM210 287h157l-78 324z" />
    <glyph glyph-name="amacron" unicode="&#x101;" 
d="M436 697v-86h-278v86h278zM401 507h100v-507h-100v53q-49 -62 -136 -62q-100 0 -154 70t-54 177v31q0 107 54 177t154 70q87 0 136 -62v53zM280 98q73 0 111 62v187q-38 62 -111 62q-57 0 -84 -39t-27 -104v-25q0 -65 27 -104t84 -39z" />
    <glyph glyph-name="Abreve" unicode="&#x102;" 
d="M290 754q-71 0 -109.5 38.5t-42.5 98.5h77q3 -25 22 -43t53 -18t53 18t22 43h77q-4 -60 -42.5 -98.5t-109.5 -38.5zM437 0l-43 177h-211l-43 -177h-116l180 700h172l180 -700h-119zM210 287h157l-78 324z" />
    <glyph glyph-name="abreve" unicode="&#x103;" 
d="M297 591q-71 0 -109.5 38.5t-42.5 98.5h77q3 -25 22 -43t53 -18t53 18t22 43h77q-4 -60 -42.5 -98.5t-109.5 -38.5zM401 507h100v-507h-100v53q-49 -62 -136 -62q-100 0 -154 70t-54 177v31q0 107 54 177t154 70q87 0 136 -62v53zM280 98q73 0 111 62v187q-38 62 -111 62
q-57 0 -84 -39t-27 -104v-25q0 -65 27 -104t84 -39z" />
    <glyph glyph-name="Aogonek" unicode="&#x104;" 
d="M542 -86q0 -18 12.5 -28.5t32.5 -10.5q16 0 28 3v-77q-18 -6 -50 -6q-51 0 -83 27t-32 71q0 63 54 107h-67l-43 177h-211l-43 -177h-116l180 700h172l173 -671l10 5l56 -34q-73 -35 -73 -86zM210 287h157l-78 324z" />
    <glyph glyph-name="aogonek" unicode="&#x105;" 
d="M401 507h100v-507h-5q-73 -35 -73 -86q0 -18 12.5 -28.5t32.5 -10.5q16 0 28 3v-77q-18 -6 -50 -6q-51 0 -83 27t-32 71q0 72 70 119v41q-49 -62 -136 -62q-100 0 -154 70t-54 177v31q0 107 54 177t154 70q87 0 136 -62v53zM280 98q73 0 111 62v187q-38 62 -111 62
q-57 0 -84 -39t-27 -104v-25q0 -65 27 -104t84 -39z" />
    <glyph glyph-name="Cacute" unicode="&#x106;" 
d="M267 761l85 132h122l-99 -132h-108zM189 310q0 -98 42.5 -155.5t131.5 -57.5q75 0 136 42v-112q-49 -40 -137 -40q-142 0 -215.5 90t-73.5 230v86q0 141 73.5 230.5t216.5 89.5q87 0 136 -40v-112q-61 42 -136 42q-89 0 -131.5 -57.5t-42.5 -155.5v-80z" />
    <glyph glyph-name="cacute" unicode="&#x107;" 
d="M267 598l85 132h122l-99 -132h-108zM190 241q0 -68 38.5 -107.5t118.5 -39.5q72 0 132 31v-107q-51 -30 -139 -30q-125 0 -193.5 71t-68.5 179v31q0 108 68.5 179t193.5 71q88 0 139 -30v-107q-60 31 -132 31q-80 0 -118.5 -39.5t-38.5 -107.5v-25z" />
    <glyph glyph-name="Cdotaccent" unicode="&#x10a;" 
d="M332 746q-33 0 -56 22.5t-23 54.5t23 54.5t56 22.5t56 -22.5t23 -54.5t-23 -54.5t-56 -22.5zM189 310q0 -98 42.5 -155.5t131.5 -57.5q75 0 136 42v-112q-49 -40 -137 -40q-142 0 -215.5 90t-73.5 230v86q0 141 73.5 230.5t216.5 89.5q87 0 136 -40v-112q-61 42 -136 42
q-89 0 -131.5 -57.5t-42.5 -155.5v-80z" />
    <glyph glyph-name="cdotaccent" unicode="&#x10b;" 
d="M332 583q-33 0 -56 22.5t-23 54.5t23 54.5t56 22.5t56 -22.5t23 -54.5t-23 -54.5t-56 -22.5zM190 241q0 -68 38.5 -107.5t118.5 -39.5q72 0 132 31v-107q-51 -30 -139 -30q-125 0 -193.5 71t-68.5 179v31q0 108 68.5 179t193.5 71q88 0 139 -30v-107q-60 31 -132 31
q-80 0 -118.5 -39.5t-38.5 -107.5v-25z" />
    <glyph glyph-name="Ccaron" unicode="&#x10c;" 
d="M279 761l-87 132h97l63 -77l62 77h97l-87 -132h-145zM73 393q0 141 73.5 230.5t216.5 89.5q87 0 136 -40v-112q-61 42 -136 42q-89 0 -131.5 -57.5t-42.5 -155.5v-80q0 -98 42.5 -155.5t131.5 -57.5q75 0 136 42v-112q-49 -40 -137 -40q-142 0 -215.5 90t-73.5 230v86z
" />
    <glyph glyph-name="ccaron" unicode="&#x10d;" 
d="M279 598l-87 132h97l63 -77l62 77h97l-87 -132h-145zM78 269q0 108 68.5 179t193.5 71q88 0 139 -30v-107q-60 31 -132 31q-80 0 -118.5 -39.5t-38.5 -107.5v-25q0 -68 38.5 -107.5t118.5 -39.5q72 0 132 31v-107q-51 -30 -139 -30q-125 0 -193.5 71t-68.5 179v31z" />
    <glyph glyph-name="Dcaron" unicode="&#x10e;" 
d="M208 761l-87 132h97l63 -77l62 77h97l-87 -132h-145zM280 700q122 0 185.5 -86t63.5 -226v-76q0 -140 -63.5 -226t-185.5 -86h-204v700h204zM413 313v74q0 93 -32.5 148t-100.5 55h-90v-482h90q68 0 100.5 56t32.5 149z" />
    <glyph glyph-name="dcaron" unicode="&#x10f;" 
d="M371 465v265h110v-730h-100v53q-49 -62 -136 -62q-100 0 -154 70t-54 177v31q0 107 54 177t154 70q78 0 126 -51zM553 730h104l-57 -181h-92zM260 98q73 0 111 62v187q-38 62 -111 62q-57 0 -84 -39t-27 -104v-25q0 -65 27 -104t84 -39z" />
    <glyph glyph-name="Dcroat" unicode="&#x110;" 
d="M280 700q122 0 185.5 -86t63.5 -226v-76q0 -140 -63.5 -226t-185.5 -86h-204v299h-63v102h63v299h204zM413 313v74q0 93 -32.5 148t-100.5 55h-90v-189h112v-102h-112v-191h90q68 0 100.5 56t32.5 149z" />
    <glyph glyph-name="dcroat" unicode="&#x111;" 
d="M561 652v-84h-60v-568h-100v53q-49 -62 -136 -62q-100 0 -154 70t-54 177v31q0 107 54 177t154 70q78 0 126 -51v103h-120v84h120v78h110v-78h60zM280 98q73 0 111 62v187q-38 62 -111 62q-57 0 -84 -39t-27 -104v-25q0 -65 27 -104t84 -39z" />
    <glyph glyph-name="Emacron" unicode="&#x112;" 
d="M430 860v-86h-278v86h278zM194 110h304v-110h-418v700h416v-110h-302v-173h270v-110h-270v-197z" />
    <glyph glyph-name="emacron" unicode="&#x113;" 
d="M447 697v-86h-278v86h278zM510 289v-71h-335q12 -124 160 -124q79 0 144 38v-106q-52 -38 -149 -38q-124 0 -194.5 66.5t-70.5 183.5v31q0 111 61 181t168 70q105 0 160.5 -61t55.5 -170zM292 419q-99 0 -115 -111h225q-4 55 -30 83t-80 28z" />
    <glyph glyph-name="Edotaccent" unicode="&#x116;" 
d="M291 746q-33 0 -56 22.5t-23 54.5t23 54.5t56 22.5t56 -22.5t23 -54.5t-23 -54.5t-56 -22.5zM194 110h304v-110h-418v700h416v-110h-302v-173h270v-110h-270v-197z" />
    <glyph glyph-name="edotaccent" unicode="&#x117;" 
d="M308 583q-33 0 -56 22.5t-23 54.5t23 54.5t56 22.5t56 -22.5t23 -54.5t-23 -54.5t-56 -22.5zM510 289v-71h-335q12 -124 160 -124q79 0 144 38v-106q-52 -38 -149 -38q-124 0 -194.5 66.5t-70.5 183.5v31q0 111 61 181t168 70q105 0 160.5 -61t55.5 -170zM292 419
q-99 0 -115 -111h225q-4 55 -30 83t-80 28z" />
    <glyph glyph-name="Eogonek" unicode="&#x118;" 
d="M444 -86q0 -18 12.5 -28.5t32.5 -10.5q16 0 28 3v-77q-18 -6 -50 -6q-51 0 -83 27t-32 71q0 63 54 107h-326v700h416v-110h-302v-173h270v-110h-270v-197h304v-98l19 -12q-73 -35 -73 -86z" />
    <glyph glyph-name="eogonek" unicode="&#x119;" 
d="M510 289v-71h-335q12 -124 160 -124q79 0 144 38v-102l8 -4q-29 -19 -51.5 -49t-22.5 -59q0 -43 45 -43q16 0 28 3v-77q-18 -6 -49 -6q-52 0 -84 27.5t-32 72.5q0 51 37 94q-9 -1 -28 -1q-124 0 -194.5 66.5t-70.5 183.5v31q0 111 61 181t168 70q105 0 160.5 -61
t55.5 -170zM292 419q-99 0 -115 -111h225q-4 55 -30 83t-80 28z" />
    <glyph glyph-name="Ecaron" unicode="&#x11a;" 
d="M238 761l-87 132h97l63 -77l62 77h97l-87 -132h-145zM194 110h304v-110h-418v700h416v-110h-302v-173h270v-110h-270v-197z" />
    <glyph glyph-name="ecaron" unicode="&#x11b;" 
d="M255 598l-87 132h97l63 -77l62 77h97l-87 -132h-145zM510 289v-71h-335q12 -124 160 -124q79 0 144 38v-106q-52 -38 -149 -38q-124 0 -194.5 66.5t-70.5 183.5v31q0 111 61 181t168 70q105 0 160.5 -61t55.5 -170zM292 419q-99 0 -115 -111h225q-4 55 -30 83t-80 28z
" />
    <glyph glyph-name="Gbreve" unicode="&#x11e;" 
d="M326 754q-71 0 -109.5 38.5t-42.5 98.5h77q3 -25 22 -43t53 -18t53 18t22 43h77q-4 -60 -42.5 -98.5t-109.5 -38.5zM301 390h220v-328q-39 -37 -94 -56t-107 -19q-131 0 -200 87t-69 233v86q0 145 71.5 232.5t204.5 87.5q85 0 159 -45v-112q-33 16 -51.5 24t-48 15.5
t-58.5 7.5q-80 0 -120.5 -55t-40.5 -158v-80q0 -213 150 -213q52 0 91 19v164h-107v110z" />
    <glyph glyph-name="gbreve" unicode="&#x11f;" 
d="M305 591q-71 0 -109.5 38.5t-42.5 98.5h77q3 -25 22 -43t53 -18t53 18t22 43h77q-4 -60 -42.5 -98.5t-109.5 -38.5zM400 507h101v-486q0 -94 -57.5 -154t-173.5 -60q-103 0 -165 38v107q63 -38 159 -38q64 0 95.5 25.5t31.5 87.5v24q-48 -48 -126 -48q-99 0 -153.5 68.5
t-54.5 174.5v27q0 105 54.5 174t153.5 69q85 0 135 -58v49zM280 110q76 0 111 58v183q-35 58 -111 58q-57 0 -84 -37.5t-27 -101.5v-21q0 -64 27 -101.5t84 -37.5z" />
    <glyph glyph-name="Gdotaccent" unicode="&#x120;" 
d="M326 746q-33 0 -56 22.5t-23 54.5t23 54.5t56 22.5t56 -22.5t23 -54.5t-23 -54.5t-56 -22.5zM301 390h220v-328q-39 -37 -94 -56t-107 -19q-131 0 -200 87t-69 233v86q0 145 71.5 232.5t204.5 87.5q85 0 159 -45v-112q-33 16 -51.5 24t-48 15.5t-58.5 7.5
q-80 0 -120.5 -55t-40.5 -158v-80q0 -213 150 -213q52 0 91 19v164h-107v110z" />
    <glyph glyph-name="gdotaccent" unicode="&#x121;" 
d="M305 583q-33 0 -56 22.5t-23 54.5t23 54.5t56 22.5t56 -22.5t23 -54.5t-23 -54.5t-56 -22.5zM400 507h101v-486q0 -94 -57.5 -154t-173.5 -60q-103 0 -165 38v107q63 -38 159 -38q64 0 95.5 25.5t31.5 87.5v24q-48 -48 -126 -48q-99 0 -153.5 68.5t-54.5 174.5v27
q0 105 54.5 174t153.5 69q85 0 135 -58v49zM280 110q76 0 111 58v183q-35 58 -111 58q-57 0 -84 -37.5t-27 -101.5v-21q0 -64 27 -101.5t84 -37.5z" />
    <glyph glyph-name="Gcommaaccent" unicode="&#x122;" 
d="M301 390h220v-328q-39 -37 -94 -56t-107 -19q-131 0 -200 87t-69 233v86q0 145 71.5 232.5t204.5 87.5q85 0 159 -45v-112q-33 16 -51.5 24t-48 15.5t-58.5 7.5q-80 0 -120.5 -55t-40.5 -158v-80q0 -213 150 -213q52 0 91 19v164h-107v110zM206 -223l54 156h114l-60 -156
h-108z" />
    <glyph glyph-name="gcommaaccent" unicode="&#x123;" 
d="M388 754l-54 -156h-114l60 156h108zM400 507h101v-486q0 -94 -57.5 -154t-173.5 -60q-103 0 -165 38v107q63 -38 159 -38q64 0 95.5 25.5t31.5 87.5v24q-48 -48 -126 -48q-99 0 -153.5 68.5t-54.5 174.5v27q0 105 54.5 174t153.5 69q85 0 135 -58v49zM280 110
q76 0 111 58v183q-35 58 -111 58q-57 0 -84 -37.5t-27 -101.5v-21q0 -64 27 -101.5t84 -37.5z" />
    <glyph glyph-name="Hbar" unicode="&#x126;" 
d="M578 607v-88h-74v-519h-114v307h-200v-307h-114v519h-74v88h74v93h114v-93h200v93h114v-93h74zM390 417v102h-200v-102h200z" />
    <glyph glyph-name="hbar" unicode="&#x127;" 
d="M332 518q82 0 128 -46.5t46 -126.5v-345h-110v318q0 47 -20 70.5t-67 23.5q-69 0 -120 -54v-358h-110v568h-61v84h61v78h110v-78h119v-84h-119v-102q59 52 143 52z" />
    <glyph glyph-name="Imacron" unicode="&#x12a;" 
d="M429 860v-86h-278v86h278zM488 590h-141v-480h141v-110h-396v110h141v480h-141v110h396v-110z" />
    <glyph glyph-name="imacron" unicode="&#x12b;" 
d="M434 697v-86h-278v86h278zM359 97h154v-97h-424v97h160v313h-140v97h250v-410z" />
    <glyph glyph-name="Iogonek" unicode="&#x12e;" 
d="M488 590h-141v-480h141v-110h-120q-73 -35 -73 -86q0 -18 12.5 -28.5t32.5 -10.5q16 0 28 3v-77q-18 -6 -50 -6q-51 0 -83 27t-32 71q0 63 54 107h-165v110h141v480h-141v110h396v-110z" />
    <glyph glyph-name="iogonek" unicode="&#x12f;" 
d="M295 583q-33 0 -56 22.5t-23 54.5t23 54.5t56 22.5t56 -22.5t23 -54.5t-23 -54.5t-56 -22.5zM359 97h154v-97h-155q-73 -35 -73 -86q0 -18 12.5 -28.5t32.5 -10.5q16 0 28 3v-77q-18 -6 -50 -6q-51 0 -83 27t-32 71q0 63 54 107h-158v97h160v313h-140v97h250v-410z" />
    <glyph glyph-name="Idotaccent" unicode="&#x130;" 
d="M290 746q-33 0 -56 22.5t-23 54.5t23 54.5t56 22.5t56 -22.5t23 -54.5t-23 -54.5t-56 -22.5zM488 590h-141v-480h141v-110h-396v110h141v480h-141v110h396v-110z" />
    <glyph glyph-name="dotlessi" unicode="&#x131;" 
d="M359 97h154v-97h-424v97h160v313h-140v97h250v-410z" />
    <glyph glyph-name="Kcommaaccent" unicode="&#x136;" 
d="M306 364l253 -364h-136l-226 331v-331h-115v700h115v-313l209 313h132zM170 -223l54 156h114l-60 -156h-108z" />
    <glyph glyph-name="kcommaaccent" unicode="&#x137;" 
d="M315 274l230 -274h-142l-208 252v-252h-110v730h110v-441l197 218h138zM169 -223l54 156h114l-60 -156h-108z" />
    <glyph glyph-name="Lacute" unicode="&#x139;" 
d="M85 761l85 132h122l-99 -132h-108zM80 0v700h114v-590h317v-110h-431z" />
    <glyph glyph-name="lacute" unicode="&#x13a;" 
d="M450 918l-99 -132h-108l85 132h122zM346 97h152v-97h-415v97h153v536h-133v97h243v-633z" />
    <glyph glyph-name="Lcommaaccent" unicode="&#x13b;" 
d="M80 0v700h114v-590h317v-110h-431zM177 -223l54 156h114l-60 -156h-108z" />
    <glyph glyph-name="lcommaaccent" unicode="&#x13c;" 
d="M346 97h152v-97h-415v97h153v536h-133v97h243v-633zM196 -223l54 156h114l-60 -156h-108z" />
    <glyph glyph-name="Lcaron" unicode="&#x13d;" 
d="M80 0v700h114v-590h317v-110h-431zM247 519l45 181h104l-57 -181h-92z" />
    <glyph glyph-name="lcaron" unicode="&#x13e;" 
d="M366 730v-633h152v-97h-415v97h153v536h-133v97h243zM567 730l-57 -181h-92l45 181h104z" />
    <glyph glyph-name="Ldot" unicode="&#x13f;" 
d="M80 0v700h114v-590h317v-110h-431zM436 308q-35 0 -59.5 24.5t-24.5 58.5q0 35 24.5 59t59.5 24t59.5 -24t24.5 -59q0 -34 -24.5 -58.5t-59.5 -24.5z" />
    <glyph glyph-name="ldot" unicode="&#x140;" 
d="M346 730v-633h152v-97h-415v97h153v536h-133v97h243zM602 455q35 0 59.5 -24t24.5 -59q0 -34 -24.5 -58.5t-59.5 -24.5t-59.5 24.5t-24.5 58.5q0 35 24.5 59t59.5 24z" />
    <glyph glyph-name="Lslash" unicode="&#x141;" 
d="M194 110h317v-110h-431v216l-73 -38v111l73 38v373h114v-314l240 124v-111l-240 -124v-165z" />
    <glyph glyph-name="lslash" unicode="&#x142;" 
d="M346 97h152v-97h-415v97h153v209l-92 -46v109l92 46v218h-133v97h243v-259l92 46v-109l-92 -46v-265z" />
    <glyph glyph-name="Nacute" unicode="&#x143;" 
d="M438 893l-99 -132h-108l85 132h122zM397 700h107v-700h-115l-206 495v-495h-107v700h115l206 -495v495z" />
    <glyph glyph-name="nacute" unicode="&#x144;" 
d="M435 730l-99 -132h-108l85 132h122zM332 518q82 0 128 -46.5t46 -126.5v-345h-110v318q0 47 -20 70.5t-67 23.5q-69 0 -120 -54v-358h-110v507h100v-51q60 62 153 62z" />
    <glyph glyph-name="Ncommaaccent" unicode="&#x145;" 
d="M397 700h107v-700h-115l-206 495v-495h-107v700h115l206 -495v495zM185 -223l54 156h114l-60 -156h-108z" />
    <glyph glyph-name="ncommaaccent" unicode="&#x146;" 
d="M332 518q82 0 128 -46.5t46 -126.5v-345h-110v318q0 47 -20 70.5t-67 23.5q-69 0 -120 -54v-358h-110v507h100v-51q60 62 153 62zM188 -223l54 156h114l-60 -156h-108z" />
    <glyph glyph-name="Ncaron" unicode="&#x147;" 
d="M243 761l-87 132h97l63 -77l62 77h97l-87 -132h-145zM397 700h107v-700h-115l-206 495v-495h-107v700h115l206 -495v495z" />
    <glyph glyph-name="ncaron" unicode="&#x148;" 
d="M240 598l-87 132h97l63 -77l62 77h97l-87 -132h-145zM332 518q82 0 128 -46.5t46 -126.5v-345h-110v318q0 47 -20 70.5t-67 23.5q-69 0 -120 -54v-358h-110v507h100v-51q60 62 153 62z" />
    <glyph glyph-name="Eng" unicode="&#x14a;" 
d="M397 700h107v-724q0 -169 -157 -169q-51 0 -76 11v100q18 -9 51 -9q37 0 54.5 18t17.5 62v11h-5l-206 495v-495h-107v700h115l206 -495v495z" />
    <glyph glyph-name="eng" unicode="&#x14b;" 
d="M506 20h2v-44q0 -169 -157 -169q-51 0 -76 11v100q18 -9 51 -9q37 0 54.5 18t17.5 62v11h-2v318q0 47 -20 70.5t-67 23.5q-69 0 -120 -54v-358h-110v507h100v-51q60 62 153 62q82 0 128 -46.5t46 -126.5v-325z" />
    <glyph glyph-name="Omacron" unicode="&#x14c;" 
d="M429 860v-86h-278v86h278zM290 713q114 0 176.5 -85t62.5 -240v-76q0 -155 -62.5 -240t-176.5 -85t-176.5 85t-62.5 240v76q0 155 62.5 240t176.5 85zM413 387q0 216 -123 216t-123 -216v-74q0 -216 123 -216t123 216v74z" />
    <glyph glyph-name="omacron" unicode="&#x14d;" 
d="M151 697h278v-86h-278v86zM290 -13q-111 0 -172 71t-61 180v31q0 109 61 180t172 71t172 -71t61 -180v-31q0 -109 -61 -180t-172 -71zM290 91q61 0 91 41t30 109v25q0 68 -30 109t-91 41t-91 -41t-30 -109v-25q0 -68 30 -109t91 -41z" />
    <glyph glyph-name="Ohungarumlaut" unicode="&#x150;" 
d="M355 893l-99 -132h-91l86 132h104zM410 761h-90l85 132h105zM290 713q114 0 176.5 -85t62.5 -240v-76q0 -155 -62.5 -240t-176.5 -85t-176.5 85t-62.5 240v76q0 155 62.5 240t176.5 85zM413 387q0 216 -123 216t-123 -216v-74q0 -216 123 -216t123 216v74z" />
    <glyph glyph-name="ohungarumlaut" unicode="&#x151;" 
d="M165 598l86 132h104l-99 -132h-91zM320 598l85 132h105l-100 -132h-90zM290 -13q-111 0 -172 71t-61 180v31q0 109 61 180t172 71t172 -71t61 -180v-31q0 -109 -61 -180t-172 -71zM290 91q61 0 91 41t30 109v25q0 68 -30 109t-91 41t-91 -41t-30 -109v-25q0 -68 30 -109
t91 -41z" />
    <glyph glyph-name="OE" unicode="&#x152;" 
d="M237 -13q-96 0 -149 90.5t-53 254.5v36q0 164 53 254.5t149 90.5q39 0 79 -13h240v-110h-150v-173h131v-110h-131v-197h151v-110h-241q-40 -13 -79 -13zM248 97q26 0 46 13v480q-20 13 -46 13q-50 0 -74 -57t-24 -179v-34q0 -122 24 -179t74 -57z" />
    <glyph glyph-name="oe" unicode="&#x153;" 
d="M565 225h-216v-5q0 -73 23.5 -105t71.5 -32q61 0 97 36v-96q-32 -34 -102 -34q-88 0 -136 58q-43 -60 -121 -60q-83 0 -125 61t-42 169v72q0 107 42 168.5t125 61.5q76 0 118 -55q40 55 111 55q75 0 114.5 -53t39.5 -157v-84zM409 428q-31 0 -44.5 -29t-15.5 -93h123
q1 66 -12.5 94t-50.5 28zM248 220v67q0 71 -14.5 104.5t-51.5 33.5q-36 0 -50.5 -34t-14.5 -104v-67q0 -71 14.5 -105.5t50.5 -34.5q37 0 51.5 34t14.5 106z" />
    <glyph glyph-name="Racute" unicode="&#x154;" 
d="M400 893l-99 -132h-108l85 132h122zM417 0l-159 277h-68v-277h-114v700h216q101 0 161.5 -57.5t60.5 -154.5q0 -74 -36 -125.5t-100 -72.5l169 -290h-130zM190 590v-203h100q57 0 83.5 27.5t26.5 73.5t-26.5 74t-83.5 28h-100z" />
    <glyph glyph-name="racute" unicode="&#x155;" 
d="M478 730l-99 -132h-108l85 132h122zM506 397q-70 -1 -123.5 -23.5t-81.5 -59.5v-217h153v-97h-378v97h115v313h-103v97h204v-89q30 45 88 71t126 26v-118z" />
    <glyph glyph-name="Rcommaaccent" unicode="&#x156;" 
d="M378 290l169 -290h-130l-159 277h-68v-277h-114v700h216q101 0 161.5 -57.5t60.5 -154.5q0 -74 -36 -125.5t-100 -72.5zM190 590v-203h100q57 0 83.5 27.5t26.5 73.5t-26.5 74t-83.5 28h-100zM153 -223l54 156h114l-60 -156h-108z" />
    <glyph glyph-name="rcommaaccent" unicode="&#x157;" 
d="M506 397q-70 -1 -123.5 -23.5t-81.5 -59.5v-217h153v-97h-378v97h115v313h-103v97h204v-89q30 45 88 71t126 26v-118zM161 -223l54 156h114l-60 -156h-108z" />
    <glyph glyph-name="Rcaron" unicode="&#x158;" 
d="M205 761l-87 132h97l63 -77l62 77h97l-87 -132h-145zM417 0l-159 277h-68v-277h-114v700h216q101 0 161.5 -57.5t60.5 -154.5q0 -74 -36 -125.5t-100 -72.5l169 -290h-130zM190 590v-203h100q57 0 83.5 27.5t26.5 73.5t-26.5 74t-83.5 28h-100z" />
    <glyph glyph-name="rcaron" unicode="&#x159;" 
d="M283 598l-87 132h97l63 -77l62 77h97l-87 -132h-145zM292 418q30 45 88 71t126 26v-118q-70 -1 -123.5 -23.5t-81.5 -59.5v-217h153v-97h-378v97h115v313h-103v97h204v-89z" />
    <glyph glyph-name="Sacute" unicode="&#x15a;" 
d="M239 761l85 132h122l-99 -132h-108zM278 -13q-63 0 -120 17.5t-89 42.5v114q93 -66 206 -66q60 0 91 25t31 69q0 41 -23 64.5t-75 42.5l-50 19q-90 34 -132.5 76t-42.5 124q0 93 63.5 145.5t166.5 52.5q104 0 166 -40v-112q-78 44 -168 44q-115 0 -115 -86q0 -38 24 -60
t79 -42l48 -18q83 -31 128 -76.5t45 -129.5q0 -96 -63.5 -151t-169.5 -55z" />
    <glyph glyph-name="sacute" unicode="&#x15b;" 
d="M248 598l85 132h122l-99 -132h-108zM287 -12q-121 0 -184 44v107q86 -50 185 -50q98 0 98 53q0 21 -17 32.5t-60 25.5l-45 15q-81 26 -118.5 58.5t-37.5 91.5q0 71 56 112.5t150 41.5t148 -28v-107q-67 34 -150 34q-95 0 -95 -49q0 -19 17.5 -30t64.5 -25l44 -14
q77 -25 115 -58t38 -96q0 -72 -55.5 -115t-153.5 -43z" />
    <glyph glyph-name="Scedilla" unicode="&#x15e;" 
d="M511 193q0 -87 -53 -141t-143 -63l-21 -42q46 -3 75 -25.5t29 -64.5q0 -48 -35 -73t-88 -25q-75 0 -117 34l26 55q39 -27 89 -27q53 0 53 36q0 33 -63 33q-18 0 -30 -3l-24 32l33 70q-109 9 -173 58v114q93 -66 206 -66q60 0 91 25t31 69q0 41 -23 64.5t-75 42.5l-50 19
q-90 34 -132.5 76t-42.5 124q0 93 63.5 145.5t166.5 52.5q104 0 166 -40v-112q-78 44 -168 44q-115 0 -115 -86q0 -38 24 -60t79 -42l48 -18q83 -31 128 -76.5t45 -129.5z" />
    <glyph glyph-name="scedilla" unicode="&#x15f;" 
d="M496 146q0 -64 -45 -106t-126 -50l-21 -43q46 -3 75 -25.5t29 -64.5q0 -48 -35 -73t-88 -25q-75 0 -117 34l26 55q39 -27 89 -27q53 0 53 36q0 33 -63 33q-18 0 -30 -3l-24 32l34 70q-98 8 -150 43v107q86 -50 185 -50q98 0 98 53q0 21 -17 32.5t-60 25.5l-45 15
q-81 26 -118.5 58.5t-37.5 91.5q0 71 56 112.5t150 41.5t148 -28v-107q-67 34 -150 34q-95 0 -95 -49q0 -19 17.5 -30t64.5 -25l44 -14q77 -25 115 -58t38 -96z" />
    <glyph glyph-name="Scaron" unicode="&#x160;" 
d="M251 761l-87 132h97l63 -77l62 77h97l-87 -132h-145zM338 399q83 -31 128 -76.5t45 -129.5q0 -96 -63.5 -151t-169.5 -55q-63 0 -120 17.5t-89 42.5v114q93 -66 206 -66q60 0 91 25t31 69q0 41 -23 64.5t-75 42.5l-50 19q-90 34 -132.5 76t-42.5 124q0 93 63.5 145.5
t166.5 52.5q104 0 166 -40v-112q-78 44 -168 44q-115 0 -115 -86q0 -38 24 -60t79 -42z" />
    <glyph glyph-name="scaron" unicode="&#x161;" 
d="M260 598l-87 132h97l63 -77l62 77h97l-87 -132h-145zM343 300q77 -25 115 -58t38 -96q0 -72 -55.5 -115t-153.5 -43q-121 0 -184 44v107q86 -50 185 -50q98 0 98 53q0 21 -17 32.5t-60 25.5l-45 15q-81 26 -118.5 58.5t-37.5 91.5q0 71 56 112.5t150 41.5t148 -28v-107
q-67 34 -150 34q-95 0 -95 -49q0 -19 17.5 -30t64.5 -25z" />
    <glyph glyph-name="uni0162" unicode="&#x162;" 
d="M347 -1h-24l-26 -52q46 -3 75 -25.5t29 -64.5q0 -48 -35 -73t-88 -25q-75 0 -117 34l26 55q39 -27 89 -27q53 0 53 36q0 33 -63 33q-18 0 -30 -3l-24 32l38 80h-17v591h-183v110h480v-110h-183v-591z" />
    <glyph glyph-name="uni0163" unicode="&#x163;" 
d="M304 180q0 -46 20.5 -64.5t73.5 -18.5q57 0 100 17v-101q-47 -21 -119 -21q-17 0 -24 1l-23 -46q46 -3 75 -25.5t29 -64.5q0 -48 -35 -73t-88 -25q-75 0 -117 34l26 55q39 -27 89 -27q53 0 53 36q0 33 -63 33q-18 0 -30 -3l-24 32l42 87q-95 34 -95 158v246h-140v97h140
v156l110 37v-193h198v-97h-198v-230z" />
    <glyph glyph-name="Tcaron" unicode="&#x164;" 
d="M237 761l-87 132h97l63 -77l62 77h97l-87 -132h-145zM50 700h480v-110h-183v-591h-114v591h-183v110z" />
    <glyph glyph-name="tcaron" unicode="&#x165;" 
d="M519 741l-57 -181h-92l45 181h104zM304 700v-193h198v-97h-198v-230q0 -46 20.5 -64.5t73.5 -18.5q57 0 100 17v-101q-47 -21 -119 -21q-185 0 -185 172v246h-140v97h140v156z" />
    <glyph glyph-name="Tbar" unicode="&#x166;" 
d="M530 590h-183v-196h68v-102h-68v-293h-114v293h-107v102h107v196h-183v110h480v-110z" />
    <glyph glyph-name="tbar" unicode="&#x167;" 
d="M502 410h-198v-104h118v-84h-118v-42q0 -46 20.5 -64.5t73.5 -18.5q57 0 100 17v-101q-47 -21 -119 -21q-185 0 -185 172v58h-62v84h62v104h-140v97h140v156l110 37v-193h198v-97z" />
    <glyph glyph-name="Umacron" unicode="&#x16a;" 
d="M151 860h278v-86h-278v86zM511 700v-493q0 -99 -55.5 -159.5t-165.5 -60.5t-165.5 60.5t-55.5 159.5v493h115v-492q0 -52 25.5 -82.5t80.5 -30.5t80.5 30.5t25.5 82.5v492h115z" />
    <glyph glyph-name="umacron" unicode="&#x16b;" 
d="M430 697v-86h-278v86h278zM390 507h110v-507h-101v51q-60 -62 -149 -62q-82 0 -128 46.5t-46 126.5v345h110v-318q0 -47 19.5 -70.5t66.5 -23.5q69 0 118 55v357z" />
    <glyph glyph-name="Uring" unicode="&#x16e;" 
d="M310 728q-49 0 -81.5 32.5t-32.5 77.5t32.5 77t81.5 32t81.5 -32t32.5 -77t-32.5 -77.5t-81.5 -32.5zM310 784q24 0 39 15.5t15 38.5q0 22 -15 37.5t-39 15.5t-39 -15.5t-15 -37.5q0 -23 15 -38.5t39 -15.5zM511 700v-493q0 -99 -55.5 -159.5t-165.5 -60.5t-165.5 60.5
t-55.5 159.5v493h115v-492q0 -52 25.5 -82.5t80.5 -30.5t80.5 30.5t25.5 82.5v492h115z" />
    <glyph glyph-name="uring" unicode="&#x16f;" 
d="M291 572q-49 0 -81.5 32.5t-32.5 77.5t32.5 77t81.5 32t81.5 -32t32.5 -77t-32.5 -77.5t-81.5 -32.5zM291 735q-24 0 -39 -15.5t-15 -37.5q0 -23 15 -38.5t39 -15.5t39 15.5t15 38.5q0 22 -15 37.5t-39 15.5zM390 507h110v-507h-101v51q-60 -62 -149 -62q-82 0 -128 46.5
t-46 126.5v345h110v-318q0 -47 19.5 -70.5t66.5 -23.5q69 0 118 55v357z" />
    <glyph glyph-name="Uhungarumlaut" unicode="&#x170;" 
d="M165 761l86 132h104l-99 -132h-91zM320 761l85 132h105l-100 -132h-90zM511 700v-493q0 -99 -55.5 -159.5t-165.5 -60.5t-165.5 60.5t-55.5 159.5v493h115v-492q0 -52 25.5 -82.5t80.5 -30.5t80.5 30.5t25.5 82.5v492h115z" />
    <glyph glyph-name="uhungarumlaut" unicode="&#x171;" 
d="M356 730l-99 -132h-91l86 132h104zM411 598h-90l85 132h105zM390 150v357h110v-507h-101v51q-60 -62 -149 -62q-82 0 -128 46.5t-46 126.5v345h110v-318q0 -47 19.5 -70.5t66.5 -23.5q69 0 118 55z" />
    <glyph glyph-name="Uogonek" unicode="&#x172;" 
d="M396 700h115v-493q0 -123 -80 -181q-29 -19 -51.5 -49t-22.5 -59q0 -43 45 -43q16 0 28 3v-77q-18 -6 -49 -6q-52 0 -84 27.5t-32 72.5q0 47 35 92h-10q-110 0 -165.5 60.5t-55.5 159.5v493h115v-492q0 -52 25.5 -82.5t80.5 -30.5t80.5 30.5t25.5 82.5v492z" />
    <glyph glyph-name="uogonek" unicode="&#x173;" 
d="M430 -86q0 -18 12.5 -28.5t32.5 -10.5q16 0 28 3v-77q-18 -6 -50 -6q-51 0 -83 27t-32 71q0 66 61 113v45q-60 -62 -149 -62q-82 0 -128 46.5t-46 126.5v345h110v-318q0 -47 19.5 -70.5t66.5 -23.5q69 0 118 55v357h110v-505l3 -2q-73 -35 -73 -86z" />
    <glyph glyph-name="Wcircumflex" unicode="&#x174;" 
d="M292 838l-63 -77h-97l87 132h145l87 -132h-97zM453 700h102l-57 -700h-136l-71 492l-71 -492h-137l-58 700h105l39 -617l70 478h104l71 -474z" />
    <glyph glyph-name="wcircumflex" unicode="&#x175;" 
d="M290 675l-63 -77h-97l87 132h145l87 -132h-97zM445 507h104l-62 -507h-140l-57 247l-57 -247h-140l-62 507h107l37 -425l75 294h83l75 -294z" />
    <glyph glyph-name="Ycircumflex" unicode="&#x176;" 
d="M290 838l-63 -77h-97l87 132h145l87 -132h-97zM553 700l-206 -394v-306h-114v306l-206 394h125l139 -278l140 278h122z" />
    <glyph glyph-name="ycircumflex" unicode="&#x177;" 
d="M293 675l-63 -77h-97l87 132h145l87 -132h-97zM419 507h116l-176 -489q-42 -115 -86 -162.5t-125 -47.5q-45 0 -68 10v103q21 -8 51 -8q77 0 108 80l-188 514h117l127 -355z" />
    <glyph glyph-name="Ydieresis" unicode="&#x178;" 
d="M178 755q-27 0 -47 19.5t-20 46.5t20 46.5t47 19.5q28 0 48 -19.5t20 -46.5q0 -28 -20 -47t-48 -19zM402 755q-28 0 -48 19t-20 47q0 27 20 46.5t48 19.5q27 0 47 -19.5t20 -46.5t-20 -46.5t-47 -19.5zM553 700l-206 -394v-306h-114v306l-206 394h125l139 -278l140 278
h122z" />
    <glyph glyph-name="Zacute" unicode="&#x179;" 
d="M224 761l85 132h122l-99 -132h-108zM62 0v105l323 485h-298v110h430v-105l-322 -485h323v-110h-456z" />
    <glyph glyph-name="zacute" unicode="&#x17a;" 
d="M244 598l85 132h122l-99 -132h-108zM89 0v95l264 315h-251v97h389v-95l-265 -315h265v-97h-402z" />
    <glyph glyph-name="Zdotaccent" unicode="&#x17b;" 
d="M289 746q-33 0 -56 22.5t-23 54.5t23 54.5t56 22.5t56 -22.5t23 -54.5t-23 -54.5t-56 -22.5zM62 0v105l323 485h-298v110h430v-105l-322 -485h323v-110h-456z" />
    <glyph glyph-name="zdotaccent" unicode="&#x17c;" 
d="M309 583q-33 0 -56 22.5t-23 54.5t23 54.5t56 22.5t56 -22.5t23 -54.5t-23 -54.5t-56 -22.5zM89 0v95l264 315h-251v97h389v-95l-265 -315h265v-97h-402z" />
    <glyph glyph-name="Zcaron" unicode="&#x17d;" 
d="M236 761l-87 132h97l63 -77l62 77h97l-87 -132h-145zM195 110h323v-110h-456v105l323 485h-298v110h430v-105z" />
    <glyph glyph-name="zcaron" unicode="&#x17e;" 
d="M256 598l-87 132h97l63 -77l62 77h97l-87 -132h-145zM491 507v-95l-265 -315h265v-97h-402v95l264 315h-251v97h389z" />
    <glyph glyph-name="florin" unicode="&#x192;" 
d="M418 607q-37 0 -54.5 -17.5t-17.5 -58.5v-52h112v-86h-112v-236q0 -87 -41.5 -128t-115.5 -41q-51 0 -76 11v100q18 -9 51 -9q36 0 54 18.5t18 61.5v223h-105v86h105v69q0 83 42 123.5t115 40.5q48 0 74 -14v-99q-19 8 -49 8z" />
    <glyph glyph-name="AEacute" unicode="&#x1fc;" 
d="M519 923l-99 -132h-108l85 132h122zM399 110h158v-110h-270v177h-122l-50 -177h-112l204 700h349v-110h-157v-173h132v-110h-132v-197zM197 287h90v318z" />
    <glyph glyph-name="aeacute" unicode="&#x1fd;" 
d="M439 730l-99 -132h-108l85 132h122zM543 225h-218v-5q0 -73 24 -105t72 -32q61 0 97 36v-96q-32 -34 -102 -34q-91 0 -140 62q-40 -61 -115 -61q-53 0 -91 42.5t-38 109.5q0 47 15 80.5t43.5 52t62 27.5t77.5 11v39q0 38 -15.5 54t-51.5 16q-62 0 -105 -48v103
q48 42 119 42q72 0 109 -43q40 43 102 43q75 0 115 -53t40 -157v-84zM386 428q-32 0 -45.5 -29t-15.5 -93h124q1 66 -12.5 94t-50.5 28zM183 83q38 0 59 39q-12 41 -12 95v12q-53 -4 -76.5 -21.5t-23.5 -60.5q0 -29 16 -46.5t37 -17.5z" />
    <glyph glyph-name="Scommaaccent" unicode="&#x218;" 
d="M278 -13q-63 0 -120 17.5t-89 42.5v114q93 -66 206 -66q60 0 91 25t31 69q0 41 -23 64.5t-75 42.5l-50 19q-90 34 -132.5 76t-42.5 124q0 93 63.5 145.5t166.5 52.5q104 0 166 -40v-112q-78 44 -168 44q-115 0 -115 -86q0 -38 24 -60t79 -42l48 -18q83 -31 128 -76.5
t45 -129.5q0 -96 -63.5 -151t-169.5 -55zM182 -223l54 156h114l-60 -156h-108z" />
    <glyph glyph-name="scommaaccent" unicode="&#x219;" 
d="M287 -12q-121 0 -184 44v107q86 -50 185 -50q98 0 98 53q0 21 -17 32.5t-60 25.5l-45 15q-81 26 -118.5 58.5t-37.5 91.5q0 71 56 112.5t150 41.5t148 -28v-107q-67 34 -150 34q-95 0 -95 -49q0 -19 17.5 -30t64.5 -25l44 -14q77 -25 115 -58t38 -96q0 -72 -55.5 -115
t-153.5 -43zM192 -223l54 156h114l-60 -156h-108z" />
    <glyph glyph-name="uni021A" unicode="&#x21a;" 
d="M347 -1h-114v591h-183v110h480v-110h-183v-591zM185 -223l54 156h114l-60 -156h-108z" />
    <glyph glyph-name="uni021B" unicode="&#x21b;" 
d="M304 180q0 -46 20.5 -64.5t73.5 -18.5q57 0 100 17v-101q-47 -21 -119 -21q-185 0 -185 172v246h-140v97h140v156l110 37v-193h198v-97h-198v-230zM220 -223l54 156h114l-60 -156h-108z" />
    <glyph glyph-name="uni0237" unicode="&#x237;" 
d="M397 507v-537q0 -163 -192 -163q-81 0 -125 19v102q51 -15 104 -15q57 0 80 18t23 62v417h-175v97h285z" />
    <glyph glyph-name="circumflex" unicode="&#x2c6;" 
d="M469 598h-97l-62 77l-63 -77h-97l87 132h145z" />
    <glyph glyph-name="caron" unicode="&#x2c7;" 
d="M392 730h97l-87 -132h-145l-87 132h97l63 -77z" />
    <glyph glyph-name="breve" unicode="&#x2d8;" 
d="M310 591q-71 0 -109.5 38.5t-42.5 98.5h77q3 -25 22 -43t53 -18t53 18t22 43h77q-4 -60 -42.5 -98.5t-109.5 -38.5z" />
    <glyph glyph-name="dotaccent" unicode="&#x2d9;" 
d="M310 583q-33 0 -56 22.5t-23 54.5t23 54.5t56 22.5t56 -22.5t23 -54.5t-23 -54.5t-56 -22.5z" />
    <glyph glyph-name="ring" unicode="&#x2da;" 
d="M310 572q-49 0 -81.5 32.5t-32.5 77.5t32.5 77t81.5 32t81.5 -32t32.5 -77t-32.5 -77.5t-81.5 -32.5zM310 628q24 0 39 15.5t15 38.5q0 22 -15 37.5t-39 15.5t-39 -15.5t-15 -37.5q0 -23 15 -38.5t39 -15.5z" />
    <glyph glyph-name="ogonek" unicode="&#x2db;" 
d="M336 34l56 -34q-73 -35 -73 -86q0 -18 12.5 -28.5t32.5 -10.5q16 0 28 3v-77q-18 -6 -50 -6q-51 0 -83 27t-32 71q0 92 109 141z" />
    <glyph glyph-name="tilde" unicode="&#x2dc;" 
d="M152 590q3 125 91 125q33 0 67 -21l23 -14q26 -16 41 -16q24 0 26 51h67q-3 -125 -91 -125q-32 0 -67 21l-23 14q-26 16 -41 16q-23 0 -25 -51h-68z" />
    <glyph glyph-name="hungarumlaut" unicode="&#x2dd;" 
d="M137 598l86 132h104l-99 -132h-91zM292 598l85 132h105l-100 -132h-90z" />
    <glyph glyph-name="gravecomb" unicode="&#x300;" horiz-adv-x="0" 
d="M-187 598h-108l-99 132h122z" />
    <glyph glyph-name="acutecomb" unicode="&#x301;" horiz-adv-x="0" 
d="M-394 598l85 132h122l-99 -132h-108z" />
    <glyph glyph-name="uni0302" unicode="&#x302;" horiz-adv-x="0" 
d="M-131 598h-97l-62 77l-63 -77h-97l87 132h145z" />
    <glyph glyph-name="tildecomb" unicode="&#x303;" horiz-adv-x="0" 
d="M-448 590q3 125 91 125q33 0 67 -21l23 -14q26 -16 41 -16q24 0 26 51h67q-3 -125 -91 -125q-32 0 -67 21l-23 14q-26 16 -41 16q-23 0 -25 -51h-68z" />
    <glyph glyph-name="uni0304" unicode="&#x304;" horiz-adv-x="0" 
d="M-429 697h278v-86h-278v86z" />
    <glyph glyph-name="uni0306" unicode="&#x306;" horiz-adv-x="0" 
d="M-290 591q-71 0 -109.5 38.5t-42.5 98.5h77q3 -25 22 -43t53 -18t53 18t22 43h77q-4 -60 -42.5 -98.5t-109.5 -38.5z" />
    <glyph glyph-name="uni0307" unicode="&#x307;" horiz-adv-x="0" 
d="M-290 583q-33 0 -56 22.5t-23 54.5t23 54.5t56 22.5t56 -22.5t23 -54.5t-23 -54.5t-56 -22.5z" />
    <glyph glyph-name="uni0308" unicode="&#x308;" horiz-adv-x="0" 
d="M-392 590q-30 0 -51 20.5t-21 50.5q0 29 21.5 49.5t50.5 20.5q30 0 51.5 -20.5t21.5 -49.5q0 -30 -21.5 -50.5t-51.5 -20.5zM-188 590q-30 0 -51 20.5t-21 50.5q0 29 21 49.5t51 20.5q29 0 50.5 -20.5t21.5 -49.5q0 -30 -21 -50.5t-51 -20.5z" />
    <glyph glyph-name="uni030A" unicode="&#x30a;" horiz-adv-x="0" 
d="M-290 572q-49 0 -81.5 32.5t-32.5 77.5t32.5 77t81.5 32t81.5 -32t32.5 -77t-32.5 -77.5t-81.5 -32.5zM-290 628q24 0 39 15.5t15 38.5q0 22 -15 37.5t-39 15.5t-39 -15.5t-15 -37.5q0 -23 15 -38.5t39 -15.5z" />
    <glyph glyph-name="uni030B" unicode="&#x30b;" horiz-adv-x="0" 
d="M-463 598l86 132h104l-99 -132h-91zM-308 598l85 132h105l-100 -132h-90z" />
    <glyph glyph-name="uni030C" unicode="&#x30c;" horiz-adv-x="0" 
d="M-208 730h97l-87 -132h-145l-87 132h97l63 -77z" />
    <glyph glyph-name="uni0312" unicode="&#x312;" horiz-adv-x="0" 
d="M-227 754l-54 -156h-114l60 156h108z" />
    <glyph glyph-name="uni0326" unicode="&#x326;" horiz-adv-x="0" 
d="M-374 -223l54 156h114l-60 -156h-108z" />
    <glyph glyph-name="uni0327" unicode="&#x327;" horiz-adv-x="0" 
d="M-274 -53q46 -3 75 -25.5t29 -64.5q0 -48 -35 -73t-88 -25q-75 0 -117 34l26 55q39 -27 89 -27q53 0 53 36q0 33 -63 33q-18 0 -30 -3l-24 32l46 96l65 -15z" />
    <glyph glyph-name="uni0328" unicode="&#x328;" horiz-adv-x="0" 
d="M-264 34l56 -34q-73 -35 -73 -86q0 -18 12.5 -28.5t32.5 -10.5q16 0 28 3v-77q-18 -6 -50 -6q-51 0 -83 27t-32 71q0 92 109 141z" />
    <glyph glyph-name="uni037E" unicode="&#x37e;" 
d="M325 353q-35 0 -59.5 24.5t-24.5 58.5q0 35 24.5 59t59.5 24t59.5 -24t24.5 -59q0 -34 -24.5 -58.5t-59.5 -24.5zM189 -135l66 244h137l-81 -244h-122z" />
    <glyph glyph-name="tonos" unicode="&#x384;" 
d="M211 598l47 152h111l-67 -152h-91z" />
    <glyph glyph-name="dieresistonos" unicode="&#x385;" 
d="M227 593l40 153h94l-58 -153h-76zM153 607q-23 0 -40.5 17t-17.5 41t17.5 41t40.5 17t40.5 -17t17.5 -41t-17.5 -41t-40.5 -17zM427 607q-23 0 -40.5 17t-17.5 41t16.5 41t41.5 17q23 0 40.5 -17t17.5 -41t-17.5 -41t-40.5 -17z" />
    <glyph glyph-name="anoteleia" unicode="&#x387;" 
d="M310 264q-35 0 -59.5 24.5t-24.5 58.5q0 35 24.5 59t59.5 24t59.5 -24t24.5 -59q0 -34 -24.5 -58.5t-59.5 -24.5z" />
    <glyph glyph-name="iotadieresistonos" unicode="&#x390;" 
d="M205 593l40 153h94l-58 -153h-76zM131 607q-23 0 -40.5 17t-17.5 41t17.5 41t40.5 17t40.5 -17t17.5 -41t-17.5 -41t-40.5 -17zM405 607q-23 0 -40.5 17t-17.5 41t16.5 41t41.5 17q23 0 40.5 -17t17.5 -41t-17.5 -41t-40.5 -17zM388 -8q-182 0 -182 173v245h-139v97h249
v-327q0 -46 20.5 -64.5t70.5 -18.5q59 0 100 17v-101q-43 -21 -119 -21z" />
    <glyph glyph-name="Alpha" unicode="&#x391;" 
d="M437 0l-43 177h-211l-43 -177h-116l180 700h172l180 -700h-119zM210 287h157l-78 324z" />
    <glyph glyph-name="Beta" unicode="&#x392;" 
d="M431 369q95 -53 95 -166q0 -92 -60 -147.5t-154 -55.5h-236v700h228q90 0 147 -52t57 -139q0 -92 -77 -140zM302 590h-112v-175h112q45 0 68.5 24.5t23.5 63.5t-23.5 63t-68.5 24zM310 110q49 0 76 27.5t27 70.5t-27 70t-76 27h-120v-195h120z" />
    <glyph glyph-name="Gamma" unicode="&#x393;" 
d="M510 700v-110h-320v-590h-114v700h434z" />
    <glyph glyph-name="uni0394" unicode="&#x394;" 
d="M372 700l184 -700h-532l184 700h164zM171 110h235l-117 470z" />
    <glyph glyph-name="Epsilon" unicode="&#x395;" 
d="M194 110h304v-110h-418v700h416v-110h-302v-173h270v-110h-270v-197z" />
    <glyph glyph-name="Zeta" unicode="&#x396;" 
d="M62 0v105l323 485h-298v110h430v-105l-322 -485h323v-110h-456z" />
    <glyph glyph-name="Eta" unicode="&#x397;" 
d="M390 700h114v-700h-114v307h-200v-307h-114v700h114v-283h200v283z" />
    <glyph glyph-name="Theta" unicode="&#x398;" 
d="M290 713q114 0 176.5 -85t62.5 -240v-76q0 -155 -62.5 -240t-176.5 -85t-176.5 85t-62.5 240v76q0 155 62.5 240t176.5 85zM413 387q0 216 -123 216t-123 -216v-74q0 -216 123 -216t123 216v74zM224 299v106h132v-106h-132z" />
    <glyph glyph-name="Iota" unicode="&#x399;" 
d="M488 590h-141v-480h141v-110h-396v110h141v480h-141v110h396v-110z" />
    <glyph glyph-name="Kappa" unicode="&#x39a;" 
d="M559 0h-136l-226 331v-331h-115v700h115v-313l209 313h132l-232 -336z" />
    <glyph glyph-name="Lambda" unicode="&#x39b;" 
d="M556 0h-117l-150 577l-150 -577h-115l188 700h156z" />
    <glyph glyph-name="Mu" unicode="&#x39c;" 
d="M395 700h131v-700h-101v520l-99 -376h-74l-100 377v-521h-98v700h133l104 -398z" />
    <glyph glyph-name="Nu" unicode="&#x39d;" 
d="M397 700h107v-700h-115l-206 495v-495h-107v700h115l206 -495v495z" />
    <glyph glyph-name="Xi" unicode="&#x39e;" 
d="M65 590v110h450v-110h-450zM97 307v110h386v-110h-386zM63 0v110h454v-110h-454z" />
    <glyph glyph-name="Omicron" unicode="&#x39f;" 
d="M290 713q114 0 176.5 -85t62.5 -240v-76q0 -155 -62.5 -240t-176.5 -85t-176.5 85t-62.5 240v76q0 155 62.5 240t176.5 85zM413 387q0 216 -123 216t-123 -216v-74q0 -216 123 -216t123 216v74z" />
    <glyph glyph-name="Pi" unicode="&#x3a0;" 
d="M504 700v-700h-114v590h-200v-590h-114v700h428z" />
    <glyph glyph-name="Rho" unicode="&#x3a1;" 
d="M307 700q102 0 166.5 -60t64.5 -159t-64.5 -159t-166.5 -60h-117v-262h-114v700h231zM305 372q58 0 89 30t31 79t-31 79t-89 30h-115v-218h115z" />
    <glyph glyph-name="Sigma" unicode="&#x3a3;" 
d="M65 0v105l203 258l-193 236v101h431v-110h-287l183 -228l-196 -252h314v-110h-455z" />
    <glyph glyph-name="Tau" unicode="&#x3a4;" 
d="M347 -1h-114v591h-183v110h480v-110h-183v-591z" />
    <glyph glyph-name="Upsilon" unicode="&#x3a5;" 
d="M553 700l-206 -394v-306h-114v306l-206 394h125l139 -278l140 278h122z" />
    <glyph glyph-name="Phi" unicode="&#x3a6;" 
d="M340 652q92 -17 145.5 -95t53.5 -196v-16q0 -118 -53.5 -196t-145.5 -95v-83h-100v83q-92 17 -145.5 95t-53.5 196v16q0 119 53.5 197t145.5 95v76h100v-77zM434 346v14q0 162 -96 198v-410q96 36 96 198zM146 346q0 -162 96 -198v410q-96 -36 -96 -198v-14z" />
    <glyph glyph-name="Chi" unicode="&#x3a7;" 
d="M549 0h-128l-131 267l-131 -267h-128l186 358l-178 342h128l123 -250l123 250h128l-177 -342z" />
    <glyph glyph-name="Psi" unicode="&#x3a8;" 
d="M435 700h102v-198q0 -147 -47.5 -223.5t-147.5 -90.5v-188h-104v188q-100 14 -147.5 90.5t-47.5 223.5v198h102v-190q0 -105 22 -157.5t73 -66.5v414h100v-414q51 14 73 66.5t22 157.5v190z" />
    <glyph glyph-name="uni03A9" unicode="&#x3a9;" 
d="M526 389v-36q0 -162 -77 -244h77v-110h-206v97q49 39 70 97.5t21 157.5v34q0 218 -121 218t-121 -218v-34q0 -99 21 -157.5t70 -97.5v-97h-206v110h77q-77 82 -77 244v36q0 154 61.5 239t174.5 85t174.5 -85t61.5 -239z" />
    <glyph glyph-name="alphatonos" unicode="&#x3ac;" 
d="M409 750l-67 -152h-91l47 152h111zM537 97q8 0 22 2v-99q-32 -6 -53 -6q-78 0 -97 69q-50 -72 -146 -72q-92 0 -149 68t-57 179v31q0 111 57 179t149 68q88 0 138 -61v52h100v-363q0 -25 7.5 -36t28.5 -11zM282 98q71 0 109 60v191q-38 60 -109 60q-54 0 -83.5 -37.5
t-29.5 -105.5v-25q0 -68 29.5 -105.5t83.5 -37.5z" />
    <glyph glyph-name="epsilontonos" unicode="&#x3ad;" 
d="M414 750l-67 -152h-91l47 152h111zM315 89q99 0 170 41v-105q-23 -16 -73 -26.5t-102 -10.5q-101 0 -158 41t-57 114q0 82 77 119q-63 35 -63 108q0 71 55.5 110.5t155.5 39.5q98 0 152 -32v-103q-68 34 -150 34q-52 0 -80.5 -15.5t-28.5 -43.5q0 -54 92 -54h82v-99h-85
q-102 0 -102 -56q0 -62 115 -62z" />
    <glyph glyph-name="etatonos" unicode="&#x3ae;" 
d="M412 750l-67 -152h-91l47 152h111zM346 518q80 0 125.5 -46.5t45.5 -126.5v-525h-110v498q0 49 -20 71.5t-64 22.5q-73 0 -123 -55v-357h-110v375q0 22 -6.5 31.5t-22.5 9.5q-11 0 -28 -5v93q28 10 60 10q73 0 90 -66q62 70 163 70z" />
    <glyph glyph-name="iotatonos" unicode="&#x3af;" 
d="M219 598l47 152h111l-67 -152h-91zM388 -8q-182 0 -182 173v245h-139v97h249v-327q0 -46 20.5 -64.5t70.5 -18.5q59 0 100 17v-101q-43 -21 -119 -21z" />
    <glyph glyph-name="upsilondieresistonos" unicode="&#x3b0;" 
d="M229 593l40 153h94l-58 -153h-76zM155 607q-23 0 -40.5 17t-17.5 41t17.5 41t40.5 17t40.5 -17t17.5 -41t-17.5 -41t-40.5 -17zM429 607q-23 0 -40.5 17t-17.5 41t16.5 41t41.5 17q23 0 40.5 -17t17.5 -41t-17.5 -41t-40.5 -17zM290 -11q-100 0 -156.5 56t-56.5 155v307
h110v-295q0 -119 103 -119t103 119v295h110v-307q0 -99 -56.5 -155t-156.5 -56z" />
    <glyph glyph-name="alpha" unicode="&#x3b1;" 
d="M537 97q8 0 22 2v-99q-32 -6 -53 -6q-78 0 -97 69q-50 -72 -146 -72q-92 0 -149 68t-57 179v31q0 111 57 179t149 68q88 0 138 -61v52h100v-363q0 -25 7.5 -36t28.5 -11zM282 98q71 0 109 60v191q-38 60 -109 60q-54 0 -83.5 -37.5t-29.5 -105.5v-25q0 -68 29.5 -105.5
t83.5 -37.5z" />
    <glyph glyph-name="beta" unicode="&#x3b2;" 
d="M407 399q61 -23 94.5 -73.5t33.5 -119.5q0 -95 -59.5 -155t-153.5 -60q-81 0 -133 47v-218h-110v690q0 108 56.5 170.5t155.5 62.5q91 0 146.5 -52.5t55.5 -137.5q0 -109 -86 -154zM303 96q55 0 88 32.5t33 87.5q0 59 -39.5 93t-109.5 34h-21v95h25q52 0 80 27t28 76
q0 48 -26 76t-70 28q-49 0 -75.5 -35.5t-26.5 -100.5v-359q40 -54 114 -54z" />
    <glyph glyph-name="gamma" unicode="&#x3b3;" 
d="M425 507h116l-196 -507v-180h-110v180l-196 507h118l134 -367z" />
    <glyph glyph-name="delta" unicode="&#x3b4;" 
d="M348 491q35 -24 59 -44t53.5 -54t45 -78.5t15.5 -96.5q0 -105 -62.5 -168t-165.5 -63q-104 0 -167.5 63.5t-63.5 163.5q0 152 147 249q-72 60 -72 130q0 65 51.5 105t134.5 40t137 -33v-106q-57 39 -133 39q-37 0 -59 -12.5t-22 -33.5q0 -15 14 -31.5t31.5 -30
t56.5 -39.5zM292 92q54 0 86.5 34.5t32.5 94.5q0 59 -30.5 100t-88.5 82q-120 -76 -120 -182q0 -58 32 -93.5t88 -35.5z" />
    <glyph glyph-name="epsilon" unicode="&#x3b5;" 
d="M315 89q99 0 170 41v-105q-23 -16 -73 -26.5t-102 -10.5q-101 0 -158 41t-57 114q0 82 77 119q-63 35 -63 108q0 71 55.5 110.5t155.5 39.5q98 0 152 -32v-103q-68 34 -150 34q-52 0 -80.5 -15.5t-28.5 -43.5q0 -54 92 -54h82v-99h-85q-102 0 -102 -56q0 -62 115 -62z
" />
    <glyph glyph-name="zeta" unicode="&#x3b6;" 
d="M349 91q95 -29 135.5 -60t40.5 -91q0 -37 -15 -85h-95q11 29 11 55q0 20 -10 35t-33 26.5t-42 18t-55 16.5q-43 13 -75.5 28t-63 39.5t-46.5 61t-16 84.5q0 99 71 208.5t199 207.5h-222v96h383v-86q-148 -98 -234 -210t-86 -205q0 -56 35 -85t118 -54z" />
    <glyph glyph-name="eta" unicode="&#x3b7;" 
d="M346 518q80 0 125.5 -46.5t45.5 -126.5v-525h-110v498q0 49 -20 71.5t-64 22.5q-73 0 -123 -55v-357h-110v375q0 22 -6.5 31.5t-22.5 9.5q-11 0 -28 -5v93q28 10 60 10q73 0 90 -66q62 70 163 70z" />
    <glyph glyph-name="theta" unicode="&#x3b8;" 
d="M290 743q113 0 174.5 -92t61.5 -263v-49q0 -171 -61 -263t-175 -92t-175 92t-61 263v49q0 171 61.5 263t174.5 92zM290 638q-115 0 -123 -219h246q-8 219 -123 219zM290 89q118 0 124 232h-248q6 -232 124 -232z" />
    <glyph glyph-name="iota" unicode="&#x3b9;" 
d="M388 -8q-182 0 -182 173v245h-139v97h249v-327q0 -46 20.5 -64.5t70.5 -18.5q59 0 100 17v-101q-43 -21 -119 -21z" />
    <glyph glyph-name="kappa" unicode="&#x3ba;" 
d="M545 0h-142l-208 252v-252h-110v507h110v-218l198 218h138l-216 -233z" />
    <glyph glyph-name="lambda" unicode="&#x3bb;" 
d="M536 0h-119l-115 370l-142 -370h-116l203 505l-18 54q-27 77 -88 77q-25 0 -58 -12v98q38 16 79 16q63 0 104 -33.5t65 -106.5z" />
    <glyph glyph-name="uni03BC" unicode="&#x3bc;" 
d="M535 97q10 0 24 2v-99q-32 -6 -54 -6q-76 0 -98 62q-61 -67 -143 -67q-51 0 -79 25v-193h-110v686h110v-323q0 -45 18.5 -67t62.5 -22q74 0 122 54v358h110v-358q0 -28 7.5 -40t29.5 -12z" />
    <glyph glyph-name="nu" unicode="&#x3bd;" 
d="M422 507h118l-178 -507h-145l-177 507h118l132 -400z" />
    <glyph glyph-name="xi" unicode="&#x3be;" 
d="M333 92q91 -30 125 -60.5t34 -90.5q0 -35 -15 -86h-94q10 28 10 56q0 20 -8.5 34.5t-28.5 26t-36.5 18t-47.5 16.5q-40 13 -67.5 25.5t-57 34t-44.5 54.5t-15 76q0 62 31.5 109.5t87.5 72.5q-89 39 -89 128q0 79 72 132h-79v92h371v-94h-75q-81 0 -131.5 -34t-50.5 -88
q0 -44 36 -68.5t102 -24.5h76v-96h-79q-75 0 -117.5 -32t-42.5 -87q0 -46 30.5 -68t102.5 -46z" />
    <glyph glyph-name="omicron" unicode="&#x3bf;" 
d="M290 -13q-111 0 -172 71t-61 180v31q0 109 61 180t172 71t172 -71t61 -180v-31q0 -109 -61 -180t-172 -71zM290 91q61 0 91 41t30 109v25q0 68 -30 109t-91 41t-91 -41t-30 -109v-25q0 -68 30 -109t91 -41z" />
    <glyph glyph-name="pi" unicode="&#x3c0;" 
d="M568 410h-80v-265q0 -29 10 -40t33 -11q17 0 37 6v-96q-28 -12 -67 -12q-123 0 -123 133v285h-175v-410h-110v410h-81v97h556v-97z" />
    <glyph glyph-name="rho" unicode="&#x3c1;" 
d="M289 520q105 0 167.5 -68t62.5 -183v-31q0 -110 -59 -178.5t-155 -68.5q-80 0 -132 52v-223h-112v448q0 115 62 183.5t166 68.5zM407 241v25q0 71 -31 110.5t-86 39.5t-86 -39.5t-31 -110.5v-105q42 -63 113 -63q57 0 89 38t32 105z" />
    <glyph glyph-name="uni03C2" unicode="&#x3c2;" 
d="M350 83q33 -13 51 -22t38 -25.5t29 -40t9 -55.5t-16 -85h-94q10 28 10 58q0 32 -21 49t-85 42q-83 34 -125.5 86.5t-42.5 156.5v27q0 113 64.5 179t174.5 66q80 0 125 -26v-108q-54 28 -119 28q-133 0 -133 -142v-21q0 -73 30.5 -105t104.5 -62z" />
    <glyph glyph-name="sigma" unicode="&#x3c3;" 
d="M561 507v-99h-119q25 -25 41.5 -71t16.5 -93v-20q0 -109 -60.5 -173t-162.5 -64q-104 0 -165.5 66.5t-61.5 178.5v20q0 116 70.5 185.5t189.5 69.5h251zM390 245q0 48 -18.5 91.5t-51.5 71.5h-3q-76 0 -115.5 -41t-39.5 -118v-14q0 -67 31 -105.5t86 -38.5
q54 0 82.5 36.5t28.5 103.5v14z" />
    <glyph glyph-name="tau" unicode="&#x3c4;" 
d="M492 411h-153v-267q0 -51 58 -51q26 0 49 9v-95q-32 -15 -77 -15q-68 0 -104 36.5t-36 104.5v278h-141v96h404v-96z" />
    <glyph glyph-name="upsilon" unicode="&#x3c5;" 
d="M290 -11q-100 0 -156.5 56t-56.5 155v307h110v-295q0 -119 103 -119t103 119v295h110v-307q0 -99 -56.5 -155t-156.5 -56z" />
    <glyph glyph-name="phi" unicode="&#x3c6;" 
d="M341 516q90 -16 142 -82t52 -167v-27q0 -101 -52 -167t-142 -82v-171h-102v171q-90 16 -142 82t-52 167v27q0 101 52 167t142 82v157h102v-157zM150 242q0 -125 92 -152v327q-92 -27 -92 -152v-23zM430 242v23q0 124 -92 152v-327q92 28 92 152z" />
    <glyph glyph-name="chi" unicode="&#x3c7;" 
d="M546 -180h-123l-134 260l-133 -260h-123l194 356l-184 331h123l126 -239l122 239h123l-180 -333z" />
    <glyph glyph-name="psi" unicode="&#x3c8;" 
d="M435 507h105v-260q0 -108 -52.5 -175t-147.5 -81v-171h-100v171q-95 14 -147.5 81t-52.5 175v260h105v-257q0 -133 96 -155v547h98v-547q96 22 96 155v257z" />
    <glyph glyph-name="omega" unicode="&#x3c9;" 
d="M506 507q34 -99 34 -238v-31q0 -119 -37.5 -185t-105.5 -66q-75 0 -107 88q-32 -88 -107 -88q-68 0 -105.5 66t-37.5 185v31q0 138 35 238h108q-38 -96 -38 -241v-25q0 -157 48 -157q49 0 49 157v138h96v-138q0 -157 49 -157q48 0 48 157v25q0 143 -37 241h108z" />
    <glyph glyph-name="iotadieresis" unicode="&#x3ca;" 
d="M164 590q-30 0 -51 20.5t-21 50.5q0 29 21.5 49.5t50.5 20.5q30 0 51.5 -20.5t21.5 -49.5q0 -30 -21.5 -50.5t-51.5 -20.5zM368 590q-30 0 -51 20.5t-21 50.5q0 29 21 49.5t51 20.5q29 0 50.5 -20.5t21.5 -49.5q0 -30 -21 -50.5t-51 -20.5zM388 -8q-182 0 -182 173v245
h-139v97h249v-327q0 -46 20.5 -64.5t70.5 -18.5q59 0 100 17v-101q-43 -21 -119 -21z" />
    <glyph glyph-name="upsilondieresis" unicode="&#x3cb;" 
d="M188 590q-30 0 -51 20.5t-21 50.5q0 29 21.5 49.5t50.5 20.5q30 0 51.5 -20.5t21.5 -49.5q0 -30 -21.5 -50.5t-51.5 -20.5zM392 590q-30 0 -51 20.5t-21 50.5q0 29 21 49.5t51 20.5q29 0 50.5 -20.5t21.5 -49.5q0 -30 -21 -50.5t-51 -20.5zM290 -11q-100 0 -156.5 56
t-56.5 155v307h110v-295q0 -119 103 -119t103 119v295h110v-307q0 -99 -56.5 -155t-156.5 -56z" />
    <glyph glyph-name="omicrontonos" unicode="&#x3cc;" 
d="M231 598l47 152h111l-67 -152h-91zM290 -13q-111 0 -172 71t-61 180v31q0 109 61 180t172 71t172 -71t61 -180v-31q0 -109 -61 -180t-172 -71zM290 91q61 0 91 41t30 109v25q0 68 -30 109t-91 41t-91 -41t-30 -109v-25q0 -68 30 -109t91 -41z" />
    <glyph glyph-name="upsilontonos" unicode="&#x3cd;" 
d="M243 598l47 152h111l-67 -152h-91zM290 -11q-100 0 -156.5 56t-56.5 155v307h110v-295q0 -119 103 -119t103 119v295h110v-307q0 -99 -56.5 -155t-156.5 -56z" />
    <glyph glyph-name="omegatonos" unicode="&#x3ce;" 
d="M402 750l-67 -152h-91l47 152h111zM506 507q34 -99 34 -238v-31q0 -119 -37.5 -185t-105.5 -66q-75 0 -107 88q-32 -88 -107 -88q-68 0 -105.5 66t-37.5 185v31q0 138 35 238h108q-38 -96 -38 -241v-25q0 -157 48 -157q49 0 49 157v138h96v-138q0 -157 49 -157
q48 0 48 157v25q0 143 -37 241h108z" />
    <glyph glyph-name="uni0401" unicode="&#x401;" 
d="M179 755q-27 0 -47 19.5t-20 46.5t20 46.5t47 19.5q28 0 48 -19.5t20 -46.5q0 -28 -20 -47t-48 -19zM403 755q-28 0 -48 19t-20 47q0 27 20 46.5t48 19.5q27 0 47 -19.5t20 -46.5t-20 -46.5t-47 -19.5zM194 110h304v-110h-418v700h416v-110h-302v-173h270v-110h-270v-197
z" />
    <glyph glyph-name="uni0402" unicode="&#x402;" 
d="M361 435q82 0 133.5 -54t51.5 -160v-25q0 -102 -41.5 -155t-113.5 -53q-36 0 -68 16v105q24 -15 56 -15q26 0 41.5 26t15.5 80v15q0 56 -26.5 84.5t-62.5 28.5q-42 0 -84 -20v-309h-111v594h-133v107h400v-107h-156v-181q50 23 98 23z" />
    <glyph glyph-name="uni0403" unicode="&#x403;" 
d="M456 893l-99 -132h-108l85 132h122zM510 700v-110h-320v-590h-114v700h434z" />
    <glyph glyph-name="uni0404" unicode="&#x404;" 
d="M383 603q-83 0 -125.5 -50.5t-47.5 -138.5h203v-110h-204q2 -95 44.5 -151t129.5 -56q75 0 136 42v-112q-49 -40 -137 -40q-142 0 -215.5 90t-73.5 230v86q0 141 73.5 230.5t216.5 89.5q87 0 136 -40v-112q-61 42 -136 42z" />
    <glyph glyph-name="uni0405" unicode="&#x405;" 
d="M278 -13q-63 0 -120 17.5t-89 42.5v114q93 -66 206 -66q60 0 91 25t31 69q0 41 -23 64.5t-75 42.5l-50 19q-90 34 -132.5 76t-42.5 124q0 93 63.5 145.5t166.5 52.5q104 0 166 -40v-112q-78 44 -168 44q-115 0 -115 -86q0 -38 24 -60t79 -42l48 -18q83 -31 128 -76.5
t45 -129.5q0 -96 -63.5 -151t-169.5 -55z" />
    <glyph glyph-name="uni0406" unicode="&#x406;" 
d="M488 590h-141v-480h141v-110h-396v110h141v480h-141v110h396v-110z" />
    <glyph glyph-name="uni0407" unicode="&#x407;" 
d="M178 755q-27 0 -47 19.5t-20 46.5t20 46.5t47 19.5q28 0 48 -19.5t20 -46.5q0 -28 -20 -47t-48 -19zM402 755q-28 0 -48 19t-20 47q0 27 20 46.5t48 19.5q27 0 47 -19.5t20 -46.5t-20 -46.5t-47 -19.5zM488 590h-141v-480h141v-110h-396v110h141v480h-141v110h396v-110z
" />
    <glyph glyph-name="uni0408" unicode="&#x408;" 
d="M474 700v-503q0 -205 -234 -205q-88 0 -151 25v113q65 -28 144 -28q70 0 98.5 29t28.5 92v367h-231v110h345z" />
    <glyph glyph-name="uni0409" unicode="&#x409;" 
d="M376 440q84 0 136 -61t52 -159t-52 -159t-136 -61h-113v606h-64l-6 -277q-1 -56 -2.5 -88t-6 -77t-13.5 -70.5t-23 -51t-37 -37t-53 -11.5q-28 0 -42 4v88q10 -2 20 -2q14 0 23 3.5t16.5 14.5t12 27t7.5 44.5t4.5 63t2.5 87.5l7 376h249v-260h18zM374 94q45 0 69.5 33.5
t24.5 92.5q0 58 -24.5 91.5t-69.5 33.5h-16v-251h16z" />
    <glyph glyph-name="uni040A" unicode="&#x40a;" 
d="M368 425q87 0 138.5 -57.5t51.5 -154.5t-52 -155t-138 -58h-118v325h-95v-325h-101v700h101v-275h95v275h101v-275h17zM365 99q91 0 91 114q0 112 -91 112h-14v-226h14z" />
    <glyph glyph-name="uni040B" unicode="&#x40b;" 
d="M360 434q97 0 140.5 -57.5t43.5 -167.5v-209h-113v197q0 64 -17.5 95.5t-63.5 31.5q-49 0 -87 -19v-306h-113v591h-131v110h398v-110h-154v-177q47 21 97 21z" />
    <glyph glyph-name="uni040C" unicode="&#x40c;" 
d="M417 893l-99 -132h-108l85 132h122zM559 0h-136l-226 331v-331h-115v700h115v-313l209 313h132l-232 -336z" />
    <glyph glyph-name="uni040E" unicode="&#x40e;" 
d="M286 747q-78 0 -120 40.5t-47 101.5h91q2 -29 19.5 -51t56.5 -22t56.5 22t19.5 51h91q-5 -61 -47 -101.5t-120 -40.5zM428 700h115l-169 -504q-38 -114 -79.5 -161.5t-114.5 -47.5q-42 0 -62 9v101q15 -7 46 -7q58 0 88 61l-8 -5l-207 554h117l146 -403z" />
    <glyph glyph-name="uni040F" unicode="&#x40f;" 
d="M390 700h114v-700h-179v-140h-110v140h-139v700h114v-590h200v590z" />
    <glyph glyph-name="uni0410" unicode="&#x410;" 
d="M437 0l-43 177h-211l-43 -177h-116l180 700h172l180 -700h-119zM210 287h157l-78 324z" />
    <glyph glyph-name="uni0411" unicode="&#x411;" 
d="M304 440q103 0 168.5 -60.5t65.5 -159.5t-65.5 -159.5t-168.5 -60.5h-228v700h395v-110h-281v-150h114zM302 110q59 0 91 30.5t32 79.5t-32 79.5t-91 30.5h-112v-220h112z" />
    <glyph glyph-name="uni0412" unicode="&#x412;" 
d="M431 369q95 -53 95 -166q0 -92 -60 -147.5t-154 -55.5h-236v700h228q90 0 147 -52t57 -139q0 -92 -77 -140zM302 590h-112v-175h112q45 0 68.5 24.5t23.5 63.5t-23.5 63t-68.5 24zM310 110q49 0 76 27.5t27 70.5t-27 70t-76 27h-120v-195h120z" />
    <glyph glyph-name="uni0413" unicode="&#x413;" 
d="M510 700v-110h-320v-590h-114v700h434z" />
    <glyph glyph-name="uni0414" unicode="&#x414;" 
d="M504 110h54v-250h-104v140h-325v-140h-105v250h44q52 56 62 374l6 216h368v-590zM181 110h209v480h-149l-3 -120q-9 -282 -57 -360z" />
    <glyph glyph-name="uni0415" unicode="&#x415;" 
d="M194 110h304v-110h-418v700h416v-110h-302v-173h270v-110h-270v-197z" />
    <glyph glyph-name="uni0416" unicode="&#x416;" 
d="M564 0h-108l-121 353v-353h-90v353l-121 -353h-108l153 364l-144 336h107l113 -329v329h90v-329l113 329h107l-144 -336z" />
    <glyph glyph-name="uni0417" unicode="&#x417;" 
d="M423 364q106 -47 106 -161q0 -101 -69.5 -158t-184.5 -57q-148 0 -224 53v116q92 -59 222 -59q71 0 106.5 29t35.5 78q0 45 -35 71.5t-102 26.5h-103v108h98q64 0 95 26.5t31 68.5q0 45 -36.5 71t-100.5 26q-106 0 -187 -44v113q70 40 190 40q115 0 182.5 -50.5
t67.5 -143.5q0 -107 -92 -154z" />
    <glyph glyph-name="uni0418" unicode="&#x418;" 
d="M389 700h115v-700h-107v495l-206 -495h-115v700h107v-495z" />
    <glyph glyph-name="uni0419" unicode="&#x419;" 
d="M280 747q-78 0 -120 40.5t-47 101.5h91q2 -29 19.5 -51t56.5 -22t56.5 22t19.5 51h91q-5 -61 -47 -101.5t-120 -40.5zM389 700h115v-700h-107v495l-206 -495h-115v700h107v-495z" />
    <glyph glyph-name="uni041A" unicode="&#x41a;" 
d="M559 0h-136l-226 331v-331h-115v700h115v-313l209 313h132l-232 -336z" />
    <glyph glyph-name="uni041B" unicode="&#x41b;" 
d="M142 700h362v-700h-114v590h-140l-3 -121q-5 -202 -22 -302.5t-50 -136.5t-98 -36q-33 0 -50 4v107q9 -3 23 -3q33 0 49.5 27t25.5 107.5t13 245.5z" />
    <glyph glyph-name="uni041C" unicode="&#x41c;" 
d="M395 700h131v-700h-101v520l-99 -376h-74l-100 377v-521h-98v700h133l104 -398z" />
    <glyph glyph-name="uni041D" unicode="&#x41d;" 
d="M390 700h114v-700h-114v307h-200v-307h-114v700h114v-283h200v283z" />
    <glyph glyph-name="uni041E" unicode="&#x41e;" 
d="M290 713q114 0 176.5 -85t62.5 -240v-76q0 -155 -62.5 -240t-176.5 -85t-176.5 85t-62.5 240v76q0 155 62.5 240t176.5 85zM413 387q0 216 -123 216t-123 -216v-74q0 -216 123 -216t123 216v74z" />
    <glyph glyph-name="uni041F" unicode="&#x41f;" 
d="M504 700v-700h-114v590h-200v-590h-114v700h428z" />
    <glyph glyph-name="uni0420" unicode="&#x420;" 
d="M307 700q102 0 166.5 -60t64.5 -159t-64.5 -159t-166.5 -60h-117v-262h-114v700h231zM305 372q58 0 89 30t31 79t-31 79t-89 30h-115v-218h115z" />
    <glyph glyph-name="uni0421" unicode="&#x421;" 
d="M189 310q0 -98 42.5 -155.5t131.5 -57.5q75 0 136 42v-112q-49 -40 -137 -40q-142 0 -215.5 90t-73.5 230v86q0 141 73.5 230.5t216.5 89.5q87 0 136 -40v-112q-61 42 -136 42q-89 0 -131.5 -57.5t-42.5 -155.5v-80z" />
    <glyph glyph-name="uni0422" unicode="&#x422;" 
d="M347 -1h-114v591h-183v110h480v-110h-183v-591z" />
    <glyph glyph-name="uni0423" unicode="&#x423;" 
d="M428 700h115l-169 -504q-38 -114 -79.5 -161.5t-114.5 -47.5q-42 0 -62 9v101q15 -7 46 -7q58 0 88 61l-8 -5l-207 554h117l146 -403z" />
    <glyph glyph-name="uni0424" unicode="&#x424;" 
d="M342 642q95 -17 146 -94t51 -190v-16q0 -113 -51 -190t-146 -94v-74h-104v74q-95 17 -146 94t-51 190v16q0 113 51 190t146 94v74h104v-74zM147 343q0 -71 23.5 -121.5t69.5 -68.5v393q-46 -18 -69.5 -68.5t-23.5 -120.5v-14zM433 343v14q0 70 -23.5 120.5t-69.5 68.5
v-393q46 18 69.5 68.5t23.5 121.5z" />
    <glyph glyph-name="uni0425" unicode="&#x425;" 
d="M549 0h-128l-131 267l-131 -267h-128l186 358l-178 342h128l123 -250l123 250h128l-177 -342z" />
    <glyph glyph-name="uni0426" unicode="&#x426;" 
d="M524 110h34v-250h-104v140h-358v700h114v-590h200v590h114v-590z" />
    <glyph glyph-name="uni0427" unicode="&#x427;" 
d="M390 700h114v-700h-114v292q-59 -27 -127 -27q-217 0 -217 226v209h114v-197q0 -67 25.5 -97.5t87.5 -30.5q65 0 117 26v299z" />
    <glyph glyph-name="uni0428" unicode="&#x428;" 
d="M425 700h103v-700h-476v700h103v-599h86v599h98v-599h86v599z" />
    <glyph glyph-name="uni0429" unicode="&#x429;" 
d="M548 110h22v-250h-97v140h-401v700h103v-599h86v599h98v-599h86v599h103v-590z" />
    <glyph glyph-name="uni042A" unicode="&#x42a;" 
d="M315 440q104 0 168 -61t64 -159t-64 -159t-168 -61h-173v590h-102v110h216v-260h59zM313 110q56 0 88 29.5t32 80.5t-32 80.5t-88 29.5h-57v-220h57z" />
    <glyph glyph-name="uni042B" unicode="&#x42b;" 
d="M181 440q86 0 139 -60.5t53 -159.5t-53 -159.5t-139 -60.5h-127v700h101v-260h26zM425 700h101v-700h-101v700zM179 100q45 0 69.5 32t24.5 88q0 55 -24.5 87t-69.5 32h-24v-239h24z" />
    <glyph glyph-name="uni042C" unicode="&#x42c;" 
d="M304 440q103 0 168.5 -60.5t65.5 -159.5t-65.5 -159.5t-168.5 -60.5h-228v700h114v-260h114zM302 110q59 0 91 30.5t32 79.5t-32 79.5t-91 30.5h-112v-220h112z" />
    <glyph glyph-name="uni042D" unicode="&#x42d;" 
d="M197 713q143 0 216.5 -89.5t73.5 -230.5v-86q0 -140 -73.5 -230t-215.5 -90q-88 0 -137 40v112q61 -42 136 -42q87 0 129.5 56t44.5 151h-204v110h203q-5 88 -47.5 138.5t-125.5 50.5q-75 0 -136 -42v112q49 40 136 40z" />
    <glyph glyph-name="uni042E" unicode="&#x42e;" 
d="M383 712q89 0 132 -84t43 -260v-36q0 -176 -43 -260.5t-132 -84.5q-85 0 -127 78.5t-45 243.5h-54v-309h-103v700h103v-290h55q4 155 46 228.5t125 73.5zM454 367q0 243 -71 243q-37 0 -54 -58t-17 -185v-34q0 -128 17 -185.5t54 -57.5q71 0 71 243v34z" />
    <glyph glyph-name="uni042F" unicode="&#x42f;" 
d="M504 700v-700h-114v277h-50l-173 -277h-134l181 285q-61 18 -97.5 72t-36.5 131q0 95 54 153.5t138 58.5h232zM273 387h117v203h-117q-38 0 -59 -29t-21 -73t21 -72.5t59 -28.5z" />
    <glyph glyph-name="uni0430" unicode="&#x430;" 
d="M401 507h100v-507h-100v53q-49 -62 -136 -62q-100 0 -154 70t-54 177v31q0 107 54 177t154 70q87 0 136 -62v53zM280 98q73 0 111 62v187q-38 62 -111 62q-57 0 -84 -39t-27 -104v-25q0 -65 27 -104t84 -39z" />
    <glyph glyph-name="uni0431" unicode="&#x431;" 
d="M310 489q99 0 155.5 -62t56.5 -162v-32q0 -108 -59.5 -176.5t-171.5 -68.5t-170.5 67.5t-58.5 178.5v33q0 131 13 212t50 133q61 83 210 97q118 12 149 21v-107q-27 -13 -125 -21q-58 -4 -93 -15t-58 -39q-23 -30 -31 -100q55 41 133 41zM412 237v20q0 61 -31.5 94.5
t-87.5 33.5q-74 0 -121 -47v-81v-20q0 -146 120 -146t120 146z" />
    <glyph glyph-name="uni0432" unicode="&#x432;" 
d="M439 264q72 -38 72 -115q0 -70 -49 -109.5t-131 -39.5h-252v507h248q76 0 124 -37.5t48 -100.5q0 -68 -60 -105zM323 409h-138v-108h138q32 0 49 15.5t17 38.5t-17 38.5t-49 15.5zM327 98q36 0 55.5 16t19.5 43t-19.5 43t-55.5 16h-142v-118h142z" />
    <glyph glyph-name="uni0433" unicode="&#x433;" 
d="M505 507v-97h-310v-410h-110v507h420z" />
    <glyph glyph-name="uni0434" unicode="&#x434;" 
d="M489 97h43v-222h-107v125h-288v-125h-106v222h40q49 37 59 272l6 138h353v-410zM184 97h195v307h-142l-2 -35q-9 -198 -51 -272z" />
    <glyph glyph-name="uni0435" unicode="&#x435;" 
d="M510 289v-71h-335q12 -124 160 -124q79 0 144 38v-106q-52 -38 -149 -38q-124 0 -194.5 66.5t-70.5 183.5v31q0 111 61 181t168 70q105 0 160.5 -61t55.5 -170zM292 419q-99 0 -115 -111h225q-4 55 -30 83t-80 28z" />
    <glyph glyph-name="uni0436" unicode="&#x436;" 
d="M558 0h-115l-104 245v-245h-98v245l-104 -245h-115l134 271l-126 236h113l98 -221v221h98v-221l98 221h113l-126 -236z" />
    <glyph glyph-name="uni0437" unicode="&#x437;" 
d="M416 261q78 -35 78 -112q0 -73 -60 -117t-158 -44q-132 0 -192 37v107q80 -41 188 -41q115 0 115 61q0 56 -108 56h-90v99h86q102 0 102 54q0 26 -30 41.5t-83 15.5q-85 0 -162 -33v105q62 30 164 30t159.5 -39.5t57.5 -109.5q0 -74 -67 -110z" />
    <glyph glyph-name="uni0438" unicode="&#x438;" 
d="M379 507h119v-507h-110v347l-186 -347h-120v507h110v-348z" />
    <glyph glyph-name="uni0439" unicode="&#x439;" 
d="M290 584q-78 0 -120 40.5t-47 101.5h91q2 -29 19.5 -51t56.5 -22t56.5 22t19.5 51h91q-5 -61 -47 -101.5t-120 -40.5zM379 507h119v-507h-110v347l-186 -347h-120v507h110v-348z" />
    <glyph glyph-name="uni043A" unicode="&#x43a;" 
d="M545 0h-142l-208 252v-252h-110v507h110v-218l198 218h138l-216 -233z" />
    <glyph glyph-name="uni043B" unicode="&#x43b;" 
d="M145 507h356v-507h-110v404h-146l-2 -48q-3 -71 -6.5 -118t-11 -91t-18.5 -69.5t-28.5 -45.5t-42 -28t-57.5 -8q-25 0 -41 4v105q12 -2 19 -2q26 0 40.5 13.5t26 70.5t15.5 169z" />
    <glyph glyph-name="uni043C" unicode="&#x43c;" 
d="M383 507h141v-507h-105v378l-95 -279h-72l-96 282v-381h-100v507h141l93 -273z" />
    <glyph glyph-name="uni043D" unicode="&#x43d;" 
d="M391 507h110v-507h-110v215h-202v-215h-110v507h110v-194h202v194z" />
    <glyph glyph-name="uni043E" unicode="&#x43e;" 
d="M290 -13q-111 0 -172 71t-61 180v31q0 109 61 180t172 71t172 -71t61 -180v-31q0 -109 -61 -180t-172 -71zM290 91q61 0 91 41t30 109v25q0 68 -30 109t-91 41t-91 -41t-30 -109v-25q0 -68 30 -109t91 -41z" />
    <glyph glyph-name="uni043F" unicode="&#x43f;" 
d="M498 507v-507h-110v410h-196v-410h-110v507h416z" />
    <glyph glyph-name="uni0440" unicode="&#x440;" 
d="M315 516q100 0 154 -70t54 -177v-31q0 -107 -54 -177t-154 -70q-78 0 -126 51v-222h-110v687h100v-53q49 62 136 62zM411 241v25q0 65 -27 104t-84 39q-73 0 -111 -62v-187q38 -62 111 -62q57 0 84 39t27 104z" />
    <glyph glyph-name="uni0441" unicode="&#x441;" 
d="M190 241q0 -68 38.5 -107.5t118.5 -39.5q72 0 132 31v-107q-51 -30 -139 -30q-125 0 -193.5 71t-68.5 179v31q0 108 68.5 179t193.5 71q88 0 139 -30v-107q-60 31 -132 31q-80 0 -118.5 -39.5t-38.5 -107.5v-25z" />
    <glyph glyph-name="uni0442" unicode="&#x442;" 
d="M509 507v-97h-165v-410h-110v410h-163v97h438z" />
    <glyph glyph-name="uni0443" unicode="&#x443;" 
d="M419 507h116l-176 -489q-42 -115 -86 -162.5t-125 -47.5q-45 0 -68 10v103q21 -8 51 -8q77 0 108 80l-188 514h117l127 -355z" />
    <glyph glyph-name="uni0444" unicode="&#x444;" 
d="M342 518q98 -12 151 -81t53 -168v-31q0 -99 -53 -168t-151 -81v-179h-104v179q-98 12 -151 81t-53 168v31q0 99 53 168t151 81v212h104v-212zM145 241q0 -124 95 -146v317q-95 -22 -95 -146v-25zM435 241v25q0 124 -95 146v-317q95 22 95 146z" />
    <glyph glyph-name="uni0445" unicode="&#x445;" 
d="M537 0h-129l-118 183l-118 -183h-129l173 260l-164 247h129l109 -171l108 171h130l-164 -247z" />
    <glyph glyph-name="uni0446" unicode="&#x446;" 
d="M518 97h40v-222h-101v125h-355v507h110v-410h196v410h110v-410z" />
    <glyph glyph-name="uni0447" unicode="&#x447;" 
d="M397 507h109v-507h-109v190q-53 -22 -123 -22q-207 0 -207 179v160h106v-149q0 -45 25 -66t86 -21q64 0 113 22v214z" />
    <glyph glyph-name="uni0448" unicode="&#x448;" 
d="M435 507h101v-507h-492v507h101v-413h97v413h96v-413h97v413z" />
    <glyph glyph-name="uni0449" unicode="&#x449;" 
d="M536 94h41v-219h-96v125h-437v507h101v-413h97v413h96v-413h97v413h101v-413z" />
    <glyph glyph-name="uni044A" unicode="&#x44a;" 
d="M366 346q81 0 133 -48t52 -125t-52 -125t-133 -48h-209v410h-124v97h234v-161h99zM364 99q40 0 61 20.5t21 53.5q0 32 -21 53t-61 21h-97v-148h97z" />
    <glyph glyph-name="uni044B" unicode="&#x44b;" 
d="M195 346q79 0 129 -48t50 -125t-50 -125t-129 -48h-150v507h101v-161h49zM434 507h101v-507h-101v507zM193 94q41 0 62 21.5t21 57.5t-21 57.5t-62 21.5h-47v-158h47z" />
    <glyph glyph-name="uni044C" unicode="&#x44c;" 
d="M334 346q81 0 133 -48t52 -125t-52 -125t-133 -48h-255v507h110v-161h145zM332 99q40 0 61 20.5t21 53.5q0 32 -21 53t-61 21h-143v-148h143z" />
    <glyph glyph-name="uni044D" unicode="&#x44d;" 
d="M220 519q125 0 193.5 -71t68.5 -179v-31q0 -108 -68.5 -179t-193.5 -71q-88 0 -139 30v107q60 -31 132 -31q137 0 155 115h-165v95h164q-22 109 -154 109q-72 0 -132 -31v107q51 30 139 30z" />
    <glyph glyph-name="uni044E" unicode="&#x44e;" 
d="M386 520q86 0 127.5 -69.5t41.5 -181.5v-31q0 -112 -41.5 -181.5t-127.5 -69.5q-81 0 -122.5 61.5t-45.5 163.5h-75v-212h-101v507h101v-198h75q7 96 48.5 153.5t119.5 57.5zM454 241v25q0 155 -68 155t-68 -155v-25q0 -155 68 -155t68 155z" />
    <glyph glyph-name="uni044F" unicode="&#x44f;" 
d="M501 507v-507h-107v180h-68l-130 -180h-127l140 188q-55 16 -86.5 56.5t-31.5 98.5q0 74 50 119t130 45h230zM279 282h115v122h-115q-38 0 -58 -17t-20 -44q0 -28 20 -44.5t58 -16.5z" />
    <glyph glyph-name="uni0451" unicode="&#x451;" 
d="M206 590q-30 0 -51 20.5t-21 50.5q0 29 21.5 49.5t50.5 20.5q30 0 51.5 -20.5t21.5 -49.5q0 -30 -21.5 -50.5t-51.5 -20.5zM410 590q-30 0 -51 20.5t-21 50.5q0 29 21 49.5t51 20.5q29 0 50.5 -20.5t21.5 -49.5q0 -30 -21 -50.5t-51 -20.5zM510 289v-71h-335
q12 -124 160 -124q79 0 144 38v-106q-52 -38 -149 -38q-124 0 -194.5 66.5t-70.5 183.5v31q0 111 61 181t168 70q105 0 160.5 -61t55.5 -170zM292 419q-99 0 -115 -111h225q-4 55 -30 83t-80 28z" />
    <glyph glyph-name="uni0452" unicode="&#x452;" 
d="M332 518q82 0 128 -46.5t46 -126.5v-369q0 -169 -157 -169q-51 0 -76 11v100q18 -9 51 -9q37 0 54.5 18t17.5 62v329q0 47 -20 70.5t-67 23.5q-69 0 -120 -54v-358h-110v568h-61v84h61v78h110v-78h119v-84h-119v-102q59 52 143 52z" />
    <glyph glyph-name="uni0453" unicode="&#x453;" 
d="M432 730l-99 -132h-108l85 132h122zM505 507v-97h-310v-410h-110v507h420z" />
    <glyph glyph-name="uni0454" unicode="&#x454;" 
d="M367 413q-132 0 -154 -109h164v-95h-165q18 -115 155 -115q72 0 132 31v-107q-51 -30 -139 -30q-125 0 -193.5 71t-68.5 179v31q0 108 68.5 179t193.5 71q88 0 139 -30v-107q-60 31 -132 31z" />
    <glyph glyph-name="uni0455" unicode="&#x455;" 
d="M287 -12q-121 0 -184 44v107q86 -50 185 -50q98 0 98 53q0 21 -17 32.5t-60 25.5l-45 15q-81 26 -118.5 58.5t-37.5 91.5q0 71 56 112.5t150 41.5t148 -28v-107q-67 34 -150 34q-95 0 -95 -49q0 -19 17.5 -30t64.5 -25l44 -14q77 -25 115 -58t38 -96q0 -72 -55.5 -115
t-153.5 -43z" />
    <glyph glyph-name="uni0456" unicode="&#x456;" 
d="M295 583q-33 0 -56 22.5t-23 54.5t23 54.5t56 22.5t56 -22.5t23 -54.5t-23 -54.5t-56 -22.5zM359 97h154v-97h-424v97h160v313h-140v97h250v-410z" />
    <glyph glyph-name="uni0457" unicode="&#x457;" 
d="M193 590q-30 0 -51 20.5t-21 50.5q0 29 21.5 49.5t50.5 20.5q30 0 51.5 -20.5t21.5 -49.5q0 -30 -21.5 -50.5t-51.5 -20.5zM397 590q-30 0 -51 20.5t-21 50.5q0 29 21 49.5t51 20.5q29 0 50.5 -20.5t21.5 -49.5q0 -30 -21 -50.5t-51 -20.5zM359 97h154v-97h-424v97h160
v313h-140v97h250v-410z" />
    <glyph glyph-name="uni0458" unicode="&#x458;" 
d="M334 583q-33 0 -56 22.5t-23 54.5t23 54.5t56 22.5t56 -22.5t23 -54.5t-23 -54.5t-56 -22.5zM112 507h285v-537q0 -163 -192 -163q-81 0 -125 19v102q51 -15 104 -15q57 0 80 18t23 62v417h-175v97z" />
    <glyph glyph-name="uni0459" unicode="&#x459;" 
d="M389 327q82 0 131 -44t49 -118q0 -75 -49 -120t-131 -45h-123v413h-71l-3 -84q-4 -143 -15.5 -211t-36 -95t-75.5 -27q-16 0 -42 4v98q10 -2 18 -2q15 0 23 7.5t14 37t9 74t7 133.5l6 159h267v-180h22zM388 94q82 0 82 69q0 34 -21.5 52t-60.5 18h-21v-139h21z" />
    <glyph glyph-name="uni045A" unicode="&#x45a;" 
d="M385 327q82 0 130.5 -44t48.5 -118q0 -75 -49 -120t-130 -45h-128v233h-105v-233h-103v507h103v-180h105v180h102v-180h26zM383 94q82 0 82 69q0 34 -21.5 52t-60.5 18h-24v-139h24z" />
    <glyph glyph-name="uni045B" unicode="&#x45b;" 
d="M332 518q82 0 128 -46.5t46 -126.5v-345h-110v318q0 47 -20 70.5t-67 23.5q-69 0 -120 -54v-358h-110v568h-61v84h61v78h110v-78h119v-84h-119v-102q59 52 143 52z" />
    <glyph glyph-name="uni045C" unicode="&#x45c;" 
d="M435 730l-99 -132h-108l85 132h122zM545 0h-142l-208 252v-252h-110v507h110v-218l198 218h138l-216 -233z" />
    <glyph glyph-name="uni045E" unicode="&#x45e;" 
d="M293 584q-78 0 -120 40.5t-47 101.5h91q2 -29 19.5 -51t56.5 -22t56.5 22t19.5 51h91q-5 -61 -47 -101.5t-120 -40.5zM419 507h116l-176 -489q-42 -115 -86 -162.5t-125 -47.5q-45 0 -68 10v103q21 -8 51 -8q77 0 108 80l-188 514h117l127 -355z" />
    <glyph glyph-name="uni045F" unicode="&#x45f;" 
d="M388 507h110v-507h-157v-125h-102v125h-157v507h110v-410h196v410z" />
    <glyph glyph-name="uni0462" unicode="&#x462;" 
d="M372 432q103 0 168.5 -59t65.5 -157t-65.5 -157t-168.5 -59h-261v519h-138v92h138v89h114v-89h166v-92h-166v-87h147zM370 110q60 0 91.5 29t31.5 77q0 47 -32 76.5t-91 29.5h-145v-212h145z" />
    <glyph glyph-name="uni0463" unicode="&#x463;" 
d="M359 346q80 0 132.5 -48t52.5 -125t-52.5 -125t-132.5 -48h-219v474h-105v84h105v142h110v-142h122v-84h-122v-128h109zM357 99q40 0 61 20.5t21 53.5q0 32 -21 53t-61 21h-107v-148h107z" />
    <glyph glyph-name="uni0472" unicode="&#x472;" 
d="M290 713q114 0 176.5 -85t62.5 -240v-76q0 -155 -62.5 -240t-176.5 -85t-176.5 85t-62.5 240v76q0 155 62.5 240t176.5 85zM290 603q-114 0 -122 -186h244q-8 186 -122 186zM290 97q121 0 123 210h-246q2 -210 123 -210z" />
    <glyph glyph-name="uni0473" unicode="&#x473;" 
d="M290 520q111 0 172 -71t61 -180v-31q0 -109 -61 -180t-172 -71t-172 71t-61 180v31q0 109 61 180t172 71zM290 416q-53 0 -82.5 -31t-36.5 -84h238q-7 53 -36.5 84t-82.5 31zM290 91q54 0 84 32.5t36 88.5h-240q6 -56 36 -88.5t84 -32.5z" />
    <glyph glyph-name="uni0474" unicode="&#x474;" 
d="M577 713q36 0 55 -5v-107q-13 3 -31 3q-47 0 -72 -72l-187 -532h-146l-248 700h124l199 -574l159 461q43 126 147 126z" />
    <glyph glyph-name="uni0475" unicode="&#x475;" 
d="M501 518q27 0 47 -3v-99q-7 2 -21 2q-17 0 -28.5 -11.5t-21.5 -41.5l-127 -365h-144l-175 507h116l133 -402l97 298q21 64 50 89.5t74 25.5z" />
    <glyph glyph-name="uni0490" unicode="&#x490;" 
d="M428 830h114v-240h-332v-590h-114v700h332v130z" />
    <glyph glyph-name="uni0491" unicode="&#x491;" 
d="M418 627h107v-217h-310v-410h-110v507h313v120z" />
    <glyph glyph-name="uni04D8" unicode="&#x4d8;" 
d="M244 712q131 0 208 -92t77 -247v-46q0 -151 -66 -245t-180 -94q-113 0 -173.5 83.5t-60.5 227.5v86h363q-4 102 -48 158.5t-127 56.5q-88 0 -153 -54v115q23 22 68 36.5t92 14.5zM285 95q55 0 86.5 48t38.5 134h-245q6 -182 120 -182z" />
    <glyph glyph-name="uni04D9" unicode="&#x4d9;" 
d="M250 519q124 0 194.5 -66.5t70.5 -183.5v-31q0 -111 -61 -181t-168 -70q-105 0 -160.5 61t-55.5 170v71h335q-12 124 -160 124q-79 0 -144 -38v106q52 38 149 38zM288 88q99 0 115 111h-225q4 -55 30 -83t80 -28z" />
    <glyph glyph-name="Wgrave" unicode="&#x1e80;" 
d="M357 761h-108l-99 132h122zM453 700h102l-57 -700h-136l-71 492l-71 -492h-137l-58 700h105l39 -617l70 478h104l71 -474z" />
    <glyph glyph-name="wgrave" unicode="&#x1e81;" 
d="M355 598h-108l-99 132h122zM445 507h104l-62 -507h-140l-57 247l-57 -247h-140l-62 507h107l37 -425l75 294h83l75 -294z" />
    <glyph glyph-name="Wacute" unicode="&#x1e82;" 
d="M434 893l-99 -132h-108l85 132h122zM453 700h102l-57 -700h-136l-71 492l-71 -492h-137l-58 700h105l39 -617l70 478h104l71 -474z" />
    <glyph glyph-name="wacute" unicode="&#x1e83;" 
d="M432 730l-99 -132h-108l85 132h122zM445 507h104l-62 -507h-140l-57 247l-57 -247h-140l-62 507h107l37 -425l75 294h83l75 -294z" />
    <glyph glyph-name="Wdieresis" unicode="&#x1e84;" 
d="M180 755q-27 0 -47 19.5t-20 46.5t20 46.5t47 19.5q28 0 48 -19.5t20 -46.5q0 -28 -20 -47t-48 -19zM404 755q-28 0 -48 19t-20 47q0 27 20 46.5t48 19.5q27 0 47 -19.5t20 -46.5t-20 -46.5t-47 -19.5zM453 700h102l-57 -700h-136l-71 492l-71 -492h-137l-58 700h105
l39 -617l70 478h104l71 -474z" />
    <glyph glyph-name="wdieresis" unicode="&#x1e85;" 
d="M188 590q-30 0 -51 20.5t-21 50.5q0 29 21.5 49.5t50.5 20.5q30 0 51.5 -20.5t21.5 -49.5q0 -30 -21.5 -50.5t-51.5 -20.5zM392 590q-30 0 -51 20.5t-21 50.5q0 29 21 49.5t51 20.5q29 0 50.5 -20.5t21.5 -49.5q0 -30 -21 -50.5t-51 -20.5zM445 507h104l-62 -507h-140
l-57 247l-57 -247h-140l-62 507h107l37 -425l75 294h83l75 -294z" />
    <glyph glyph-name="uni1E9E" unicode="&#x1e9e;" 
d="M394 405q93 -37 136.5 -86.5t43.5 -129.5q0 -94 -53.5 -148t-147.5 -54q-84 0 -128 32v114q55 -38 126 -38q42 0 65 25.5t23 65.5q0 49 -31.5 78.5t-100.5 52.5l-55 18v78l130 184h-211v-597h-115v700h457v-94z" />
    <glyph glyph-name="Ygrave" unicode="&#x1ef2;" 
d="M355 761h-108l-99 132h122zM553 700l-206 -394v-306h-114v306l-206 394h125l139 -278l140 278h122z" />
    <glyph glyph-name="ygrave" unicode="&#x1ef3;" 
d="M358 598h-108l-99 132h122zM419 507h116l-176 -489q-42 -115 -86 -162.5t-125 -47.5q-45 0 -68 10v103q21 -8 51 -8q77 0 108 80l-188 514h117l127 -355z" />
    <glyph glyph-name="endash" unicode="&#x2013;" 
d="M63 261v99h454v-99h-454z" />
    <glyph glyph-name="emdash" unicode="&#x2014;" 
d="M10 261v99h560v-99h-560z" />
    <glyph glyph-name="quoteleft" unicode="&#x2018;" 
d="M389 700l-70 -233h-131l80 233h121z" />
    <glyph glyph-name="quoteright" unicode="&#x2019;" 
d="M188 467l69 233h132l-81 -233h-120z" />
    <glyph glyph-name="quotesinglbase" unicode="&#x201a;" 
d="M207 -111l69 233h132l-81 -233h-120z" />
    <glyph glyph-name="quotedblleft" unicode="&#x201c;" 
d="M306 701l-70 -233h-131l80 233h121zM511 700l-70 -233h-131l80 233h121z" />
    <glyph glyph-name="quotedblright" unicode="&#x201d;" 
d="M102 467l69 233h132l-81 -233h-120zM310 467l69 233h132l-81 -233h-120z" />
    <glyph glyph-name="quotedblbase" unicode="&#x201e;" 
d="M125 -111l69 233h132l-81 -233h-120zM330 -111l69 233h132l-81 -233h-120z" />
    <glyph glyph-name="dagger" unicode="&#x2020;" 
d="M558 469v-110h-211v-489h-114v489h-211v110h211v231h114v-231h211z" />
    <glyph glyph-name="daggerdbl" unicode="&#x2021;" 
d="M558 390h-211v-190h211v-110h-211v-220h-114v220h-211v110h211v190h-211v110h211v200h114v-200h211v-110z" />
    <glyph glyph-name="bullet" unicode="&#x2022;" 
d="M290 199q-62 0 -106.5 44.5t-44.5 106.5t44.5 106.5t106.5 44.5t106.5 -44.5t44.5 -106.5t-44.5 -106.5t-106.5 -44.5z" />
    <glyph glyph-name="ellipsis" unicode="&#x2026;" 
d="M94 -10q-35 0 -59.5 24.5t-24.5 58.5q0 35 24.5 59t59.5 24t59.5 -24t24.5 -59q0 -34 -24.5 -58.5t-59.5 -24.5zM310 -10q-35 0 -59.5 24.5t-24.5 58.5q0 35 24.5 59t59.5 24t59.5 -24t24.5 -59q0 -34 -24.5 -58.5t-59.5 -24.5zM526 -10q-35 0 -59.5 24.5t-24.5 58.5
q0 35 24.5 59t59.5 24t59.5 -24t24.5 -59q0 -34 -24.5 -58.5t-59.5 -24.5z" />
    <glyph glyph-name="guilsinglleft" unicode="&#x2039;" 
d="M308 65l-159 193v9l159 192h123l-162 -197l162 -197h-123z" />
    <glyph glyph-name="guilsinglright" unicode="&#x203a;" 
d="M252 65h-123l162 197l-162 197h123l159 -192v-9z" />
    <glyph glyph-name="fraction" unicode="&#x2044;" 
d="M76 0l366 700h62l-366 -700h-62z" />
    <glyph glyph-name="Euro" unicode="&#x20ac;" 
d="M399 612q-132 0 -167 -140h194v-77h-204q-1 -8 -1 -25v-40v-7h205v-77h-198q31 -158 171 -158q77 0 141 43v-104q-54 -40 -148 -40q-115 0 -185.5 71.5t-89.5 187.5h-78v77h72v4v46v22h-72v77h81q22 109 91.5 175t180.5 66q94 0 148 -40v-104q-64 43 -141 43z" />
    <glyph glyph-name="uni20BA" unicode="&#x20ba;" 
d="M444 278h95q-18 -142 -105.5 -210t-230.5 -68h-66v275l-97 -32v80l97 33v82l-97 -32v80l97 33v181h110v-145l145 49v-81l-145 -48v-83l145 49v-81l-145 -48v-218q87 7 133.5 52t63.5 132z" />
    <glyph glyph-name="uni20BD" unicode="&#x20bd;" 
d="M325 295h-85v-63h146v-77h-146v-155h-110v155h-91v77h91v63h-91v86h91v319h195q98 0 157 -54.5t59 -147.5t-58 -148t-158 -55zM240 600v-219h79q57 0 85 30t28 79q0 50 -28 80t-85 30h-79z" />
    <glyph glyph-name="uni2116" unicode="&#x2116;" 
d="M476 709q47 0 69 -37.5t22 -118.5v-21q0 -81 -22 -118.5t-69 -37.5q-91 0 -91 156v21q0 156 91 156zM241 232v468h84v-700h-86l-101 485v-485h-84v700h89zM503 534v17q0 55 -6 76t-21 21q-14 0 -20 -21.5t-6 -75.5v-17q0 -54 6 -75.5t20 -21.5q15 0 21 21.5t6 75.5z" />
    <glyph glyph-name="trademark" unicode="&#x2122;" 
d="M-124 617v83h330v-83h-122v-297h-86v297h-122zM592 700h112v-379h-86v266l-98 -193h-64l-97 191v-264h-83v379h112l102 -203z" />
    <glyph glyph-name="oneeighth" unicode="&#x215b;" 
d="M462 700h62l-366 -700h-62zM50 407v52h74v168l-70 -18v58l101 32h31v-240h72v-52h-208zM531 156q39 -26 39 -71q0 -41 -29.5 -66.5t-83.5 -25.5t-83.5 25.5t-29.5 66.5q0 45 39 71q-29 23 -29 59t28 61t75 25t75 -25t28 -61t-29 -59zM457 246q-19 0 -29.5 -9t-10.5 -23
t10.5 -23.5t29.5 -9.5t29.5 9.5t10.5 23.5q0 32 -40 32zM457 48q24 0 37 11t13 28q0 40 -50 40t-50 -40q0 -17 13 -28t37 -11z" />
    <glyph glyph-name="threeeighths" unicode="&#x215c;" 
d="M258 497q0 -43 -32.5 -70.5t-85.5 -27.5q-51 0 -90 21v63q39 -23 89 -23q27 0 41.5 10t14.5 26q0 33 -49 33q-21 0 -33 -6l-29 40l81 79h-112v58h189v-57l-63 -60q36 -5 57.5 -27.5t21.5 -58.5zM462 700h62l-366 -700h-62zM531 156q39 -26 39 -71q0 -41 -29.5 -66.5
t-83.5 -25.5t-83.5 25.5t-29.5 66.5q0 45 39 71q-29 23 -29 59t28 61t75 25t75 -25t28 -61t-29 -59zM457 246q-19 0 -29.5 -9t-10.5 -23t10.5 -23.5t29.5 -9.5t29.5 9.5t10.5 23.5q0 32 -40 32zM457 48q24 0 37 11t13 28q0 40 -50 40t-50 -40q0 -17 13 -28t37 -11z" />
    <glyph glyph-name="fiveeighths" unicode="&#x215d;" 
d="M258 500q0 -44 -32.5 -72.5t-87.5 -28.5q-49 0 -88 21v63q37 -23 87 -23q58 0 58 38q0 35 -50 35q-23 0 -39 -8l-50 18l20 157h168v-58h-115l-8 -53q15 3 34 3q45 0 74 -24.5t29 -67.5zM462 700h62l-366 -700h-62zM531 156q39 -26 39 -71q0 -41 -29.5 -66.5t-83.5 -25.5
t-83.5 25.5t-29.5 66.5q0 45 39 71q-29 23 -29 59t28 61t75 25t75 -25t28 -61t-29 -59zM457 246q-19 0 -29.5 -9t-10.5 -23t10.5 -23.5t29.5 -9.5t29.5 9.5t10.5 23.5q0 32 -40 32zM457 48q24 0 37 11t13 28q0 40 -50 40t-50 -40q0 -17 13 -28t37 -11z" />
    <glyph glyph-name="seveneighths" unicode="&#x215e;" 
d="M156 406h-72q5 53 33 117.5t66 118.5h-133v58h207v-57q-84 -109 -101 -237zM462 700h62l-366 -700h-62zM531 156q39 -26 39 -71q0 -41 -29.5 -66.5t-83.5 -25.5t-83.5 25.5t-29.5 66.5q0 45 39 71q-29 23 -29 59t28 61t75 25t75 -25t28 -61t-29 -59zM457 246
q-19 0 -29.5 -9t-10.5 -23t10.5 -23.5t29.5 -9.5t29.5 9.5t10.5 23.5q0 32 -40 32zM457 48q24 0 37 11t13 28q0 40 -50 40t-50 -40q0 -17 13 -28t37 -11z" />
    <glyph glyph-name="partialdiff" unicode="&#x2202;" 
d="M307 730q114 -96 164 -203t50 -260v-33q0 -115 -61.5 -181t-168.5 -66q-108 0 -170 66t-62 180v30q0 101 60.5 163.5t158.5 62.5q60 0 106 -27q-51 132 -226 268h149zM409 237v20q0 51 -5 84q-37 44 -114 44q-56 0 -87.5 -33.5t-31.5 -94.5v-20q0 -145 119 -145t119 145z
" />
    <glyph glyph-name="emptyset" unicode="&#x2205;" 
d="M495 501q79 -82 79 -197q0 -118 -83 -201t-201 -83q-87 0 -160 49l-61 -73l-49 34l65 77q-79 82 -79 197q0 118 83 201t201 83q88 0 159 -49l61 72l49 -34zM89 304q0 -77 48 -135l261 309q-50 32 -108 32q-84 0 -142.5 -60t-58.5 -146zM290 98q84 0 142.5 60t58.5 146
q0 78 -49 135l-260 -309q50 -32 108 -32z" />
    <glyph glyph-name="product" unicode="&#x220f;" 
d="M608 700v-110h-100v-720h-114v720h-208v-720h-114v720h-100v110h636z" />
    <glyph glyph-name="summation" unicode="&#x2211;" 
d="M398 243l-206 -263h344v-110h-491v105l238 310l-238 310v105h491v-110h-344l206 -262v-85z" />
    <glyph glyph-name="minus" unicode="&#x2212;" 
d="M81 302v90h418v-90h-418z" />
    <glyph glyph-name="radical" unicode="&#x221a;" 
d="M598 700v-110h-111l-192 -690h-175l-138 428h124l102 -330l187 702h203z" />
    <glyph glyph-name="infinity" unicode="&#x221e;" 
d="M103 128q-67 0 -115 45t-48 111q0 69 48 114t122 45q91 0 184 -102q31 33 52.5 51t58 34.5t76.5 16.5q71 0 115 -43t44 -111v-1q0 -71 -49.5 -115.5t-116.5 -44.5q-46 0 -87.5 23.5t-94.5 78.5q-45 -49 -89 -75.5t-100 -26.5zM110 198q26 0 52.5 14.5t41.5 28.5t39 40
q-27 32 -41 47t-41.5 31t-56.5 16q-38 0 -60 -26t-22 -66q0 -37 24.5 -61t63.5 -24zM477 198q37 0 59 26t22 60q0 44 -22.5 67.5t-59.5 23.5q-33 0 -62 -19.5t-72 -67.5q44 -50 73 -70t62 -20z" />
    <glyph glyph-name="integral" unicode="&#x222b;" 
d="M468 740q50 0 76 -13v-99q-19 8 -52 8q-34 0 -53.5 -19t-29.5 -65l-130 -582q-19 -85 -58 -124t-109 -39q-50 0 -76 13v99q19 -8 51 -8q35 0 54.5 18.5t29.5 63.5l130 584q19 85 58 124t109 39z" />
    <glyph glyph-name="approxequal" unicode="&#x2248;" 
d="M410 355q-40 0 -120 28t-120 28q-52 0 -90 -39v90q31 33 90 33q40 0 120 -28t120 -28q52 0 90 39v-90q-31 -33 -90 -33zM410 178q-40 0 -120 28t-120 28q-52 0 -90 -39v90q31 33 90 33q40 0 120 -28t120 -28q52 0 90 39v-90q-31 -33 -90 -33z" />
    <glyph glyph-name="notequal" unicode="&#x2260;" 
d="M539 391h-193l-44 -88h237v-90h-282l-42 -83h-67l42 83h-69v90h114l44 88h-158v90h203l41 83h67l-41 -83h148v-90z" />
    <glyph glyph-name="lessequal" unicode="&#x2264;" 
d="M459 537v-99l-298 -96l298 -95v-99l-418 150v89zM41 4v90h418v-90h-418z" />
    <glyph glyph-name="greaterequal" unicode="&#x2265;" 
d="M101 537l418 -150v-89l-418 -150v99l298 95l-298 96v99zM101 4v90h418v-90h-418z" />
    <glyph glyph-name="lozenge" unicode="&#x25ca;" 
d="M345 0l202 350l-202 350h-110l-202 -350l202 -350h110zM290 597l141 -247l-141 -247l-141 247z" />
    <glyph glyph-name="i.loclTRK" 
d="M295 583q-33 0 -56 22.5t-23 54.5t23 54.5t56 22.5t56 -22.5t23 -54.5t-23 -54.5t-56 -22.5zM359 97h154v-97h-424v97h160v313h-140v97h250v-410z" />
    <glyph glyph-name="zero.dnom" 
d="M268 301q109 0 109 -143v-22q0 -143 -109 -143q-110 0 -110 143v22q0 143 110 143zM268 244q-48 0 -48 -83l93 29q-7 54 -45 54zM268 50q47 0 47 83l-93 -29q7 -54 46 -54z" />
    <glyph glyph-name="one.dnom" 
d="M322 52h72v-52h-208v52h74v168l-70 -18v58l101 32h31v-240z" />
    <glyph glyph-name="two.dnom" 
d="M301 95q-31 -25 -39 -37h132v-58h-207v21q0 33 15 59t53 54l25 18q27 20 39 32.5t12 27.5q0 28 -48 28q-45 0 -82 -30v63q31 28 88 28q51 0 78 -24.5t27 -64.5q0 -25 -15 -47t-56 -53z" />
    <glyph glyph-name="three.dnom" 
d="M315 177q36 -5 57.5 -27.5t21.5 -58.5q0 -43 -32.5 -70.5t-85.5 -27.5q-51 0 -90 21v63q39 -23 89 -23q27 0 41.5 10t14.5 26q0 33 -49 33q-21 0 -33 -6l-29 40l81 79h-112v58h189v-57z" />
    <glyph glyph-name="four.dnom" 
d="M368 110h41v-58h-41v-52h-62v52h-134v55l106 187h90v-184zM237 110h69v123z" />
    <glyph glyph-name="five.dnom" 
d="M291 186q45 0 74 -24.5t29 -67.5q0 -44 -32.5 -72.5t-87.5 -28.5q-49 0 -88 21v63q37 -23 87 -23q58 0 58 38q0 35 -50 35q-23 0 -39 -8l-50 18l20 157h168v-58h-115l-8 -53q15 3 34 3z" />
    <glyph glyph-name="six.dnom" 
d="M301 195q100 0 100 -96q0 -44 -28 -75t-81 -31q-54 0 -83 29t-29 77v12q0 55 32.5 103.5t72.5 79.5h88q-78 -58 -106 -105q17 6 34 6zM292 51q46 0 46 45q0 42 -47 42q-28 0 -47 -16q-1 -5 -1 -13v-8q0 -50 49 -50z" />
    <glyph glyph-name="seven.dnom" 
d="M187 294h207v-57q-84 -109 -101 -237h-72q5 53 33 117.5t66 118.5h-133v58z" />
    <glyph glyph-name="eight.dnom" 
d="M364 156q39 -26 39 -71q0 -41 -29.5 -66.5t-83.5 -25.5t-83.5 25.5t-29.5 66.5q0 45 39 71q-29 23 -29 59t28 61t75 25t75 -25t28 -61t-29 -59zM290 246q-19 0 -29.5 -9t-10.5 -23t10.5 -23.5t29.5 -9.5t29.5 9.5t10.5 23.5q0 32 -40 32zM290 48q24 0 37 11t13 28
q0 40 -50 40t-50 -40q0 -17 13 -28t37 -11z" />
    <glyph glyph-name="nine.dnom" 
d="M290 301q52 0 81.5 -29t29.5 -77v-12q0 -55 -33 -104.5t-73 -78.5h-86q76 57 105 105q-16 -6 -37 -6q-42 0 -69.5 25.5t-27.5 68.5q0 46 28 77t82 31zM288 156q31 0 49 17q1 4 1 12v8q0 23 -13 36.5t-37 13.5q-46 0 -46 -45q0 -42 46 -42z" />
    <glyph glyph-name="zero.numr" 
d="M268 707q109 0 109 -143v-22q0 -143 -109 -143q-110 0 -110 143v22q0 143 110 143zM268 650q-48 0 -48 -83l93 29q-7 54 -45 54zM268 456q47 0 47 83l-93 -29q7 -54 46 -54z" />
    <glyph glyph-name="one.numr" 
d="M322 459h72v-52h-208v52h74v168l-70 -18v58l101 32h31v-240z" />
    <glyph glyph-name="two.numr" 
d="M301 501q-31 -25 -39 -37h132v-58h-207v21q0 33 15 59t53 54l25 18q27 20 39 32.5t12 27.5q0 28 -48 28q-45 0 -82 -30v63q31 28 88 28q51 0 78 -24.5t27 -64.5q0 -25 -15 -47t-56 -53z" />
    <glyph glyph-name="three.numr" 
d="M315 583q36 -5 57.5 -27.5t21.5 -58.5q0 -43 -32.5 -70.5t-85.5 -27.5q-51 0 -90 21v63q39 -23 89 -23q27 0 41.5 10t14.5 26q0 33 -49 33q-21 0 -33 -6l-29 40l81 79h-112v58h189v-57z" />
    <glyph glyph-name="four.numr" 
d="M368 516h41v-58h-41v-52h-62v52h-134v55l106 187h90v-184zM237 516h69v123z" />
    <glyph glyph-name="five.numr" 
d="M291 592q45 0 74 -24.5t29 -67.5q0 -44 -32.5 -72.5t-87.5 -28.5q-49 0 -88 21v63q37 -23 87 -23q58 0 58 38q0 35 -50 35q-23 0 -39 -8l-50 18l20 157h168v-58h-115l-8 -53q15 3 34 3z" />
    <glyph glyph-name="six.numr" 
d="M301 601q100 0 100 -96q0 -44 -28 -75t-81 -31q-54 0 -83 29t-29 77v12q0 55 32.5 103.5t72.5 79.5h88q-78 -58 -106 -105q17 6 34 6zM292 457q46 0 46 45q0 42 -47 42q-28 0 -47 -16q-1 -5 -1 -13v-8q0 -50 49 -50z" />
    <glyph glyph-name="seven.numr" 
d="M187 700h207v-57q-84 -109 -101 -237h-72q5 53 33 117.5t66 118.5h-133v58z" />
    <glyph glyph-name="eight.numr" 
d="M364 562q39 -26 39 -71q0 -41 -29.5 -66.5t-83.5 -25.5t-83.5 25.5t-29.5 66.5q0 45 39 71q-29 23 -29 59t28 61t75 25t75 -25t28 -61t-29 -59zM290 652q-19 0 -29.5 -9t-10.5 -23t10.5 -23.5t29.5 -9.5t29.5 9.5t10.5 23.5q0 32 -40 32zM290 454q24 0 37 11t13 28
q0 40 -50 40t-50 -40q0 -17 13 -28t37 -11z" />
    <glyph glyph-name="nine.numr" 
d="M290 707q52 0 81.5 -29t29.5 -77v-12q0 -55 -33 -104.5t-73 -78.5h-86q76 57 105 105q-16 -6 -37 -6q-42 0 -69.5 25.5t-27.5 68.5q0 46 28 77t82 31zM288 562q31 0 49 17q1 4 1 12v8q0 23 -13 36.5t-37 13.5q-46 0 -46 -45q0 -42 46 -42z" />
    <glyph glyph-name="caroncomb.alt" horiz-adv-x="0" 
d="M-365 549l45 181h104l-57 -181h-92z" />
    <glyph glyph-name="uni0308.case" horiz-adv-x="0" 
d="M-402 785q-27 0 -47 19.5t-20 46.5t20 46.5t47 19.5q28 0 48 -19.5t20 -46.5q0 -28 -20 -47t-48 -19zM-178 785q-28 0 -48 19t-20 47q0 27 20 46.5t48 19.5q27 0 47 -19.5t20 -46.5t-20 -46.5t-47 -19.5z" />
    <glyph glyph-name="uni030A.case" horiz-adv-x="0" 
d="M-270 728q-49 0 -81.5 32.5t-32.5 77.5t32.5 77t81.5 32t81.5 -32t32.5 -77t-32.5 -77.5t-81.5 -32.5zM-270 784q24 0 39 15.5t15 38.5q0 22 -15 37.5t-39 15.5t-39 -15.5t-15 -37.5q0 -23 15 -38.5t39 -15.5z" />
    <glyph glyph-name="tonos.case" 
d="M217 498l36 202h110l-57 -202h-89z" />
    <glyph glyph-name="brevecombcy" horiz-adv-x="0" 
d="M-290 584q-78 0 -120 40.5t-47 101.5h91q2 -29 19.5 -51t56.5 -22t56.5 22t19.5 51h91q-5 -61 -47 -101.5t-120 -40.5z" />
  </font>
</defs>
</svg>
